<?xml version="1.0" encoding="UTF-8" standalone="no"?>
<!-- Created with Inkscape (http://www.inkscape.org/) -->

<svg
   xmlns:dc="http://purl.org/dc/elements/1.1/"
   xmlns:cc="http://creativecommons.org/ns#"
   xmlns:rdf="http://www.w3.org/1999/02/22-rdf-syntax-ns#"
   xmlns:svg="http://www.w3.org/2000/svg"
   xmlns="http://www.w3.org/2000/svg"
   xmlns:sodipodi="http://sodipodi.sourceforge.net/DTD/sodipodi-0.dtd"
   xmlns:inkscape="http://www.inkscape.org/namespaces/inkscape"
   width="128"
   height="128"
   id="svg2"
   sodipodi:version="0.32"
   inkscape:version="0.92.4 (5da689c313, 2019-01-14)"
   version="1.0"
   sodipodi:docname="slider.svg"
   inkscape:output_extension="org.inkscape.output.svgz.inkscape"
   inkscape:export-filename="arrow-up.png"
   inkscape:export-xdpi="11.25"
   inkscape:export-ydpi="11.25">
  <sodipodi:namedview
     id="base"
     pagecolor="#eff0f1"
     bordercolor="#666666"
     borderopacity="1.0"
     gridtolerance="10000"
     guidetolerance="10"
     objecttolerance="10"
     inkscape:pageopacity="1"
     inkscape:pageshadow="2"
     inkscape:zoom="2.0651043"
     inkscape:cx="86.412188"
     inkscape:cy="51.660933"
     inkscape:document-units="px"
     inkscape:current-layer="layer1"
     width="128px"
     height="128px"
     showgrid="true"
     inkscape:window-width="1440"
     inkscape:window-height="826"
     inkscape:window-x="0"
     inkscape:window-y="0"
     inkscape:snap-nodes="true"
     inkscape:snap-global="true"
     inkscape:window-maximized="1"
     inkscape:snap-page="true">
    <inkscape:grid
       id="GridFromPre046Settings"
       type="xygrid"
       originx="0"
       originy="0"
       spacingx="1"
       spacingy="1"
       color="#0000ff"
       empcolor="#0000ff"
       opacity="0.01960784"
       empopacity="0.03921569"
       empspacing="2"
       visible="true"
       enabled="true"
       snapvisiblegridlinesonly="true" />
  </sodipodi:namedview>
  <defs
     id="defs4">
    <style
       id="current-color-scheme"
       type="text/css">
      .ColorScheme-Text {
        color:#31363b;
        stop-color:#31363b;
      }
      .ColorScheme-Background {
        color:#eff0f1;
        stop-color:#eff0f1;
      }
      .ColorScheme-Highlight {
        color:#3daee9;
        stop-color:#3daee9;
      }
      .ColorScheme-ViewText {
        color:#31363b;
        stop-color:#31363b;
      }
      .ColorScheme-ViewBackground {
        color:#fcfcfc;
        stop-color:#fcfcfc;
      }
      .ColorScheme-ViewHover {
        color:#93cee9;
        stop-color:#93cee9;
      }
      .ColorScheme-ViewFocus{
        color:#3daee9;
        stop-color:#3daee9;
      }
      .ColorScheme-ButtonText {
        color:#31363b;
        stop-color:#31363b;
      }
      .ColorScheme-ButtonBackground {
        color:#eff0f1;
        stop-color:#eff0f1;
      }
      .ColorScheme-Highlight {
        color:#93cee9;
        stop-color:#93cee9;
      }
      .ColorScheme-ButtonFocus{
        color:#3daee9;
        stop-color:#3daee9;
      }
      </style>
  </defs>
  <metadata
     id="metadata7">
    <rdf:RDF>
      <cc:Work
         rdf:about="">
        <dc:format>image/svg+xml</dc:format>
        <dc:type
           rdf:resource="http://purl.org/dc/dcmitype/StillImage" />
      </cc:Work>
    </rdf:RDF>
  </metadata>
  <g
     inkscape:label="Layer 1"
     inkscape:groupmode="layer"
     id="layer1">
    <rect
       ry="2.077126"
       rx="0"
       y="4.6594176"
       x="2.2599621"
       height="2.077126"
       width="2.0329318"
       id="hint-tile-center"
       style="fill:#4e9a06;fill-opacity:1;fill-rule:nonzero;stroke:none" />
    <g
       id="horizontal-slider-hover"
       transform="translate(24,2)"
       style="opacity:0">
      <rect
         y="96"
         x="14"
         height="24"
         width="24"
         id="rect3075"
         style="opacity:0.00100002;fill:#000000;fill-opacity:0.00392157;stroke:none" />
      <path
         class="ColorScheme-Highlight"
         style="fill:currentColor"
         d="m 26,98.000001 c -5.522847,0 -10,4.477149 -10,9.999999 0,5.52285 4.477153,10 10,10 5.522847,0 10,-4.47715 10,-10 0,-5.52285 -4.477153,-9.999999 -10,-9.999999 z m 0,1 c 4.970563,0 9,4.029439 9,8.999999 0,4.97056 -4.029437,9 -9,9 -4.970563,0 -9,-4.02944 -9,-9 0,-4.97056 4.029437,-8.999999 9,-8.999999 z"
         id="path3077"
         inkscape:connector-curvature="0" />
      <path
         inkscape:connector-curvature="0"
         class="ColorScheme-Highlight"
         id="path3088"
         d="m 26,97 c -6.075132,0 -11,4.92487 -11,11 0,6.07513 4.924868,11 11,11 6.075132,0 11,-4.92487 11,-11 0,-6.07513 -4.924868,-11 -11,-11 z m 0,1 c 5.522847,0 10,4.47715 10,10 0,5.52285 -4.477153,10 -10,10 -5.522847,0 -10,-4.47715 -10,-10 0,-5.52285 4.477153,-10 10,-10 z"
         style="opacity:0.3;fill:currentColor" />
    </g>
    <g
       id="horizontal-slider-shadow"
       style="opacity:0">
      <rect
         y="98"
         x="96"
         height="24"
         width="24"
         id="rect3114"
         style="opacity:0.00100002;fill:#000000;fill-opacity:0.00392157;stroke:none" />
      <path
         inkscape:connector-curvature="0"
         id="path3118"
         d="m 108,99 c -6.07513,0 -11,4.92487 -11,11 0,6.07513 4.92487,11 11,11 6.07513,0 11,-4.92487 11,-11 0,-6.07513 -4.92487,-11 -11,-11 z m 0,1 c 5.52285,0 10,4.47715 10,10 0,5.52285 -4.47715,10 -10,10 -5.52285,0 -10,-4.47715 -10,-10 0,-5.52285 4.47715,-10 10,-10 z"
         style="opacity:0.05;color:#3daee9;fill:#000000;fill-opacity:1" />
      <path
         id="path3037"
         d="M 115.71875,103.625 C 117.14531,105.35359 118,107.58375 118,110 c 0,2.76963 -1.14961,5.2516 -2.96875,7.0625 C 113.2229,118.86267 110.75322,120 108,120 c -2.76143,0 -5.25285,-1.12786 -7.0625,-2.9375 1.83415,2.22247 4.61215,3.625 7.71875,3.625 5.52285,0 10,-4.47715 10,-10 0,-2.76143 -1.12786,-5.25286 -2.9375,-7.0625 z"
         style="opacity:0.15;color:#3daee9;fill:#000000;fill-opacity:1"
         inkscape:connector-curvature="0" />
    </g>
    <g
       id="vertical-slider-shadow"
       transform="translate(3,-36)"
       style="opacity:0">
      <rect
         style="opacity:0.00100002;fill:#000000;fill-opacity:0.00392157;stroke:none"
         id="rect3824"
         width="24"
         height="24"
         x="96"
         y="98" />
      <path
         style="opacity:0.05;color:#3daee9;fill:#000000;fill-opacity:1"
         d="m 108,99 c -6.07513,0 -11,4.92487 -11,11 0,6.07513 4.92487,11 11,11 6.07513,0 11,-4.92487 11,-11 0,-6.07513 -4.92487,-11 -11,-11 z m 0,1 c 5.52285,0 10,4.47715 10,10 0,5.52285 -4.47715,10 -10,10 -5.52285,0 -10,-4.47715 -10,-10 0,-5.52285 4.47715,-10 10,-10 z"
         id="path3826"
         inkscape:connector-curvature="0" />
      <path
         inkscape:connector-curvature="0"
         style="opacity:0.15;color:#3daee9;fill:#000000;fill-opacity:1"
         d="M 115.71875,103.625 C 117.14531,105.35359 118,107.58375 118,110 c 0,2.76963 -1.14961,5.2516 -2.96875,7.0625 C 113.2229,118.86267 110.75322,120 108,120 c -2.76143,0 -5.25285,-1.12786 -7.0625,-2.9375 1.83415,2.22247 4.61215,3.625 7.71875,3.625 5.52285,0 10,-4.47715 10,-10 0,-2.76143 -1.12786,-5.25286 -2.9375,-7.0625 z"
         id="path3828" />
    </g>
    <circle
       style="fill:#31363b;fill-opacity:1;stroke:none;stroke-opacity:1"
       id="hint-handle-size"
       cx="115"
       cy="48"
       r="10" />
    <path
       id="groove-vertical-top"
       d="m 19,29 v 3 h 3 v -3 z"
       style="opacity:0.3;fill:currentColor"
       inkscape:connector-curvature="0"
       class="ColorScheme-Text" />
    <path
       inkscape:connector-curvature="0"
       sodipodi:nodetypes="ccccc"
       id="groove-vertical-topleft"
       d="m 18,29 h -3 v 3 h 3 z"
       style="color:#31363b;opacity:0.3;fill:currentColor;stroke-width:1"
       class="ColorScheme-Text" />
    <path
       inkscape:connector-curvature="0"
       style="opacity:0.3;fill:currentColor"
       d="m 19,40 v -3 h 3 v 3 z"
       id="groove-vertical-bottom"
       class="ColorScheme-Text" />
    <path
       style="color:#31363b;opacity:0.3;fill:currentColor;stroke-width:1"
       d="m 18,40 h -3 v -3 h 3 z"
       id="groove-vertical-bottomleft"
       sodipodi:nodetypes="ccccc"
       inkscape:connector-curvature="0"
       class="ColorScheme-Text" />
    <path
       inkscape:connector-curvature="0"
       style="opacity:0.3;fill:currentColor"
       d="m 19,33 v 3 h 3 v -3 z"
       id="groove-vertical-center"
       class="ColorScheme-Text" />
    <path
       id="groove-vertical-left"
       d="m 15,33 v 3 h 3 v -3 z"
       style="color:#31363b;opacity:0.3;fill:currentColor;stroke-width:1"
       inkscape:connector-curvature="0"
       class="ColorScheme-Text" />
    <path
       class="ColorScheme-ViewFocus"
       inkscape:connector-curvature="0"
       style="color:#93cee9;fill:#288a5a;fill-opacity:1"
       d="m 51,29 v 3 h 3 v -3 z"
       id="groove-highlight-vertical-top" />
    <path
       class="ColorScheme-ViewFocus"
       style="color:#93cee9;fill:#288a5a;fill-opacity:1"
       d="m 50,29 h -3 v 3 h 3 z"
       id="groove-highlight-vertical-topleft"
       sodipodi:nodetypes="ccccc"
       inkscape:connector-curvature="0" />
    <path
       class="ColorScheme-ViewFocus"
       id="groove-highlight-vertical-bottom"
       d="m 51,40 v -3 h 3 v 3 z"
       style="color:#93cee9;fill:#288a5a;fill-opacity:1"
       inkscape:connector-curvature="0" />
    <path
       class="ColorScheme-ViewFocus"
       inkscape:connector-curvature="0"
       sodipodi:nodetypes="ccccc"
       id="groove-highlight-vertical-bottomleft"
       d="m 50,40 h -3 v -3 h 3 z"
       style="color:#93cee9;fill:#288a5a;fill-opacity:1" />
    <path
       class="ColorScheme-ViewFocus"
       id="groove-highlight-vertical-center"
       d="m 51,33 v 3 h 3 v -3 z"
       style="color:#93cee9;fill:#288a5a;fill-opacity:1"
       inkscape:connector-curvature="0" />
    <path
       class="ColorScheme-ViewFocus"
       inkscape:connector-curvature="0"
       style="color:#93cee9;fill:#288a5a;fill-opacity:1"
       d="m 47,33 v 3 h 3 v -3 z"
       id="groove-highlight-vertical-left" />
    <g
       id="groove-highlight-vertical-topright">
      <path
         style="color:#93cee9;fill:#288a5a;fill-opacity:1"
         d="m 58,32 v -3 h -3 v 3 z"
         id="path888"
         sodipodi:nodetypes="ccccc"
         inkscape:connector-curvature="0"
         class="ColorScheme-ViewFocus" />
    </g>
    <g
       id="groove-highlight-vertical-right">
      <path
         id="path900"
         d="m 55,33 v 3 h 3 v -3 z"
         style="color:#93cee9;fill:#288a5a;fill-opacity:1"
         inkscape:connector-curvature="0"
         class="ColorScheme-ViewFocus" />
    </g>
    <g
       id="groove-highlight-vertical-bottomright">
      <path
         inkscape:connector-curvature="0"
         sodipodi:nodetypes="ccccc"
         id="path894"
         d="m 58,37 v 3 h -3 v -3 z"
         style="color:#93cee9;fill:#288a5a;fill-opacity:1"
         class="ColorScheme-ViewFocus" />
    </g>
    <g
       id="groove-vertical-topright"
       transform="matrix(0.21428571,0,0,1,18.071429,0)">
      <path
         class="ColorScheme-Text"
         inkscape:connector-curvature="0"
         sodipodi:nodetypes="ccccc"
         id="path1203"
         d="M 37,32 V 29 H 23 v 3 z"
         style="color:#31363b;opacity:0.3;fill:currentColor;stroke-width:2.16024685" />
    </g>
    <g
       id="groove-vertical-right"
       transform="matrix(0.21428571,0,0,1,18.071429,0)">
      <path
         class="ColorScheme-Text"
         inkscape:connector-curvature="0"
         style="color:#31363b;opacity:0.3;fill:currentColor;stroke-width:2.16024685"
         d="m 23,33 v 3 h 14 v -3 z"
         id="path1205" />
    </g>
    <g
       id="groove-vertical-bottomright"
       transform="matrix(0.21428571,0,0,1,18.071429,0)">
      <path
         class="ColorScheme-Text"
         style="color:#31363b;opacity:0.3;fill:currentColor;stroke-width:2.16024685"
         d="m 37,37 v 3 H 23 v -3 z"
         id="path1207"
         sodipodi:nodetypes="ccccc"
         inkscape:connector-curvature="0" />
    </g>
    <path
       class="ColorScheme-Text"
       inkscape:connector-curvature="0"
       style="opacity:0.3;fill:currentColor"
       d="m 82,19 h -3 v 3 h 3 z"
       id="groove-right" />
    <path
       class="ColorScheme-Text"
       style="color:#31363b;opacity:0.3;fill:currentColor;stroke-width:1"
       d="m 82,18 v -3 h -3 v 3 z"
       id="groove-topright"
       sodipodi:nodetypes="ccccc"
       inkscape:connector-curvature="0" />
    <path
       class="ColorScheme-Text"
       id="groove-left"
       d="m 71,19 h 3 v 3 h -3 z"
       style="opacity:0.3;fill:currentColor"
       inkscape:connector-curvature="0" />
    <path
       class="ColorScheme-Text"
       inkscape:connector-curvature="0"
       sodipodi:nodetypes="ccccc"
       id="groove-topleft"
       d="m 71,18 v -3 h 3 v 3 z"
       style="color:#31363b;opacity:0.3;fill:currentColor;stroke-width:1" />
    <path
       class="ColorScheme-Text"
       id="groove-center"
       d="m 78,19 h -3 v 3 h 3 z"
       style="opacity:0.3;fill:currentColor"
       inkscape:connector-curvature="0" />
    <path
       class="ColorScheme-Text"
       inkscape:connector-curvature="0"
       style="color:#31363b;opacity:0.3;fill:currentColor;stroke-width:1"
       d="m 78,15 h -3 v 3 h 3 z"
       id="groove-top" />
    <path
       id="groove-highlight-right"
       d="m 98,8 h -3 v 3 h 3 z"
       style="color:#93cee9;fill:#288a5a;fill-opacity:1"
       inkscape:connector-curvature="0"
       class="ColorScheme-ViewFocus" />
    <path
       inkscape:connector-curvature="0"
       sodipodi:nodetypes="ccccc"
       id="groove-highlight-topright"
       d="M 98,7 V 4 h -3 v 3 z"
       style="color:#93cee9;fill:#288a5a;fill-opacity:1"
       class="ColorScheme-ViewFocus" />
    <path
       inkscape:connector-curvature="0"
       style="color:#93cee9;fill:#288a5a;fill-opacity:1"
       d="m 87,8 h 3 v 3 h -3 z"
       id="groove-highlight-left"
       class="ColorScheme-ViewFocus" />
    <path
       style="color:#93cee9;fill:#288a5a;fill-opacity:1"
       d="M 87,7 V 4 h 3 v 3 z"
       id="groove-highlight-topleft"
       sodipodi:nodetypes="ccccc"
       inkscape:connector-curvature="0"
       class="ColorScheme-ViewFocus" />
    <path
       inkscape:connector-curvature="0"
       style="color:#93cee9;fill:#288a5a;fill-opacity:1"
       d="m 94,8 h -3 v 3 h 3 z"
       id="groove-highlight-center"
       class="ColorScheme-ViewFocus" />
    <path
       id="groove-highlight-top"
       d="m 94,4 h -3 v 3 h 3 z"
       style="color:#93cee9;fill:#288a5a;fill-opacity:1"
       inkscape:connector-curvature="0"
       class="ColorScheme-ViewFocus" />
    <g
       id="groove-highlight-bottomright"
       transform="rotate(90,85,42)">
      <path
         class="ColorScheme-ViewFocus"
         inkscape:connector-curvature="0"
         sodipodi:nodetypes="ccccc"
         id="path921"
         d="m 58,32 v -3 h -3 v 3 z"
         style="color:#93cee9;fill:#288a5a;fill-opacity:1" />
    </g>
    <g
       id="groove-highlight-bottom"
       transform="rotate(90,85,42)">
      <path
         class="ColorScheme-ViewFocus"
         inkscape:connector-curvature="0"
         style="color:#93cee9;fill:#288a5a;fill-opacity:1"
         d="m 55,33 v 3 h 3 v -3 z"
         id="path927" />
    </g>
    <g
       id="groove-highlight-bottomleft"
       transform="rotate(90,85,42)">
      <path
         class="ColorScheme-ViewFocus"
         style="color:#93cee9;fill:#288a5a;fill-opacity:1"
         d="m 58,37 v 3 h -3 v -3 z"
         id="path933"
         sodipodi:nodetypes="ccccc"
         inkscape:connector-curvature="0" />
    </g>
    <g
       id="groove-bottomright"
       transform="rotate(90,55.5,55.5)">
      <path
         style="color:#31363b;opacity:0.3;fill:currentColor;stroke-width:1"
         d="m 26,32 v -3 h -3 v 3 z"
         id="path939"
         sodipodi:nodetypes="ccccc"
         inkscape:connector-curvature="0"
         class="ColorScheme-Text" />
    </g>
    <g
       id="groove-bottom"
       transform="matrix(0,0.21428571,-1,0,111,18.071429)">
      <path
         id="path945"
         d="m 23,33 v 3 h 14 v -3 z"
         style="color:#31363b;opacity:0.3;fill:currentColor;stroke-width:2.16024685"
         inkscape:connector-curvature="0"
         class="ColorScheme-Text" />
    </g>
    <g
       id="groove-bottomleft"
       transform="matrix(0,0.21428571,-1,0,111,18.071429)">
      <path
         inkscape:connector-curvature="0"
         sodipodi:nodetypes="ccccc"
         id="path951"
         d="m 37,37 v 3 H 23 v -3 z"
         style="color:#31363b;opacity:0.3;fill:currentColor;stroke-width:2.16024685"
         class="ColorScheme-Text" />
    </g>
    <g
       id="vertical-slider-handle"
       transform="translate(-63.5,22.5)">
      <rect
         y="36.5"
         x="71.5"
         height="18"
         width="18"
         id="rect908"
         style="fill:none;fill-opacity:1;stroke-width:1.28571415" />
      <path
         sodipodi:nodetypes="ccccc"
         inkscape:connector-curvature="0"
         id="rect908-3"
         d="m 75.5,45.5 h 8 v 8 0 z"
         style="color:#31363b;fill:#ffffff;stroke-width:0.8888889"
         class="ColorScheme-Highlight" />
    </g>
    <g
       transform="translate(-30.5,17)"
       id="horizontal-slider-handle">
      <rect
         y="42"
         x="76.5"
         height="18"
         width="18"
         id="rect908-7"
         style="fill:none;fill-opacity:1;stroke-width:1.28571415" />
      <path
         sodipodi:nodetypes="ccccc"
         inkscape:connector-curvature="0"
         id="rect908-3-5"
         d="m 78.5,47 h 8 v 8 0 z"
         style="color:#31363b;fill:#ffffff;stroke-width:0.8888889"
         class="ColorScheme-Text" />
    </g>
    <g
       id="vertical-slider-focus"
       transform="translate(-63.5,42.5)">
      <rect
         y="36.5"
         x="71.5"
         height="18"
         width="18"
         id="rect908-6"
         style="fill:none;fill-opacity:1;stroke-width:1.28571415" />
      <path
         sodipodi:nodetypes="ccccc"
         inkscape:connector-curvature="0"
         id="rect908-3-2"
         d="m 75.5,45.5 h 8 v 8 0 z"
         style="color:#31363b;fill:#ffffff;stroke-width:0.8888889"
         class="ColorScheme-Highlight" />
    </g>
    <g
       id="vertical-slider-hover"
       transform="translate(-63.5,62.5)">
      <rect
         y="36.5"
         x="71.5"
         height="18"
         width="18"
         id="rect908-1"
         style="fill:none;fill-opacity:1;stroke-width:1.28571415" />
      <path
         sodipodi:nodetypes="ccccc"
         inkscape:connector-curvature="0"
         id="rect908-3-27"
         d="m 75.5,45.5 h 8 v 8 0 z"
         style="color:#31363b;fill:#ffffff;stroke-width:0.8888889"
         class="ColorScheme-Highlight" />
    </g>
    <g
       transform="translate(-30.5,37)"
       id="horizontal-slider-handle-0"
       inkscape:label="#horizontal-slider-hover">
      <rect
         y="42"
         x="76.5"
         height="18"
         width="18"
         id="rect908-7-9"
         style="fill:none;fill-opacity:1;stroke-width:1.28571415" />
      <path
         sodipodi:nodetypes="ccccc"
         inkscape:connector-curvature="0"
         id="rect908-3-5-3"
         d="m 78.5,47 h 8 v 8 0 z"
         style="color:#31363b;fill:#ffffff;stroke-width:0.8888889"
         class="ColorScheme-Text" />
    </g>
    <g
       transform="translate(-30.5,57)"
       id="horizontal-slider-focus"
       inkscape:label="#horizontal-slider-focus">
      <rect
         y="42"
         x="76.5"
         height="18"
         width="18"
         id="rect908-7-9-0"
         style="fill:none;fill-opacity:1;stroke-width:1.28571415" />
      <path
         sodipodi:nodetypes="ccccc"
         inkscape:connector-curvature="0"
         id="rect908-3-5-3-6"
         d="m 78.5,47 h 8 v 8 0 z"
         style="color:#31363b;fill:#ffffff;stroke-width:0.8888889"
         class="ColorScheme-Text" />
    </g>
  </g>
</svg>
