<?xml version="1.0" encoding="UTF-8" standalone="no"?>
<!-- Created with Inkscape (http://www.inkscape.org/) -->

<svg
   xmlns:dc="http://purl.org/dc/elements/1.1/"
   xmlns:cc="http://creativecommons.org/ns#"
   xmlns:rdf="http://www.w3.org/1999/02/22-rdf-syntax-ns#"
   xmlns:svg="http://www.w3.org/2000/svg"
   xmlns="http://www.w3.org/2000/svg"
   xmlns:sodipodi="http://sodipodi.sourceforge.net/DTD/sodipodi-0.dtd"
   xmlns:inkscape="http://www.inkscape.org/namespaces/inkscape"
   width="128"
   height="128"
   id="svg2"
   sodipodi:version="0.32"
   inkscape:version="0.92.2 5c3e80d, 2017-08-06"
   version="1.0"
   sodipodi:docname="slider.svg"
   inkscape:output_extension="org.inkscape.output.svgz.inkscape"
   inkscape:export-filename="arrow-up.png"
   inkscape:export-xdpi="11.25"
   inkscape:export-ydpi="11.25">
  <sodipodi:namedview
     id="base"
     pagecolor="#eff0f1"
     bordercolor="#666666"
     borderopacity="1.0"
     gridtolerance="10000"
     guidetolerance="10"
     objecttolerance="10"
     inkscape:pageopacity="1"
     inkscape:pageshadow="2"
     inkscape:zoom="5.8409968"
     inkscape:cx="71.393854"
     inkscape:cy="129.0412"
     inkscape:document-units="px"
     inkscape:current-layer="layer1"
     width="128px"
     height="128px"
     showgrid="true"
     inkscape:window-width="1920"
     inkscape:window-height="1015"
     inkscape:window-x="0"
     inkscape:window-y="0"
     inkscape:snap-nodes="true"
     inkscape:snap-global="true"
     inkscape:window-maximized="1"
     inkscape:snap-page="true">
    <inkscape:grid
       id="GridFromPre046Settings"
       type="xygrid"
       originx="0"
       originy="0"
       spacingx="1"
       spacingy="1"
       color="#0000ff"
       empcolor="#0000ff"
       opacity="0.01960784"
       empopacity="0.03921569"
       empspacing="2"
       visible="true"
       enabled="true"
       snapvisiblegridlinesonly="true" />
  </sodipodi:namedview>
  <defs
     id="defs4">
    <style
       id="current-color-scheme"
       type="text/css">
      .ColorScheme-Text {
        color:#31363b;
        stop-color:#31363b;
      }
      .ColorScheme-Background {
        color:#eff0f1;
        stop-color:#eff0f1;
      }
      .ColorScheme-Highlight {
        color:#3daee9;
        stop-color:#3daee9;
      }
      .ColorScheme-ViewText {
        color:#31363b;
        stop-color:#31363b;
      }
      .ColorScheme-ViewBackground {
        color:#fcfcfc;
        stop-color:#fcfcfc;
      }
      .ColorScheme-ViewHover {
        color:#93cee9;
        stop-color:#93cee9;
      }
      .ColorScheme-ViewFocus{
        color:#3daee9;
        stop-color:#3daee9;
      }
      .ColorScheme-ButtonText {
        color:#31363b;
        stop-color:#31363b;
      }
      .ColorScheme-ButtonBackground {
        color:#eff0f1;
        stop-color:#eff0f1;
      }
      .ColorScheme-Highlight {
        color:#93cee9;
        stop-color:#93cee9;
      }
      .ColorScheme-ButtonFocus{
        color:#3daee9;
        stop-color:#3daee9;
      }
      </style>
  </defs>
  <metadata
     id="metadata7">
    <rdf:RDF>
      <cc:Work
         rdf:about="">
        <dc:format>image/svg+xml</dc:format>
        <dc:type
           rdf:resource="http://purl.org/dc/dcmitype/StillImage" />
      </cc:Work>
    </rdf:RDF>
  </metadata>
  <g
     inkscape:label="Layer 1"
     inkscape:groupmode="layer"
     id="layer1">
    <rect
       ry="2.077126"
       rx="0"
       y="4.6594176"
       x="2.2599621"
       height="2.077126"
       width="2.0329318"
       id="hint-tile-center"
       style="fill:#4e9a06;fill-opacity:1;fill-rule:nonzero;stroke:none" />
    <g
       id="horizontal-slider-hover"
       transform="translate(24,2)"
       style="opacity:0">
      <rect
         y="96"
         x="14"
         height="24"
         width="24"
         id="rect3075"
         style="opacity:0.00100002;fill:#000000;fill-opacity:0.00392157;stroke:none" />
      <path
         class="ColorScheme-Highlight"
         style="fill:currentColor"
         d="m 26,98.000001 c -5.522847,0 -10,4.477149 -10,9.999999 0,5.52285 4.477153,10 10,10 5.522847,0 10,-4.47715 10,-10 0,-5.52285 -4.477153,-9.999999 -10,-9.999999 z m 0,1 c 4.970563,0 9,4.029439 9,8.999999 0,4.97056 -4.029437,9 -9,9 -4.970563,0 -9,-4.02944 -9,-9 0,-4.97056 4.029437,-8.999999 9,-8.999999 z"
         id="path3077"
         inkscape:connector-curvature="0" />
      <path
         inkscape:connector-curvature="0"
         class="ColorScheme-Highlight"
         id="path3088"
         d="m 26,97 c -6.075132,0 -11,4.92487 -11,11 0,6.07513 4.924868,11 11,11 6.075132,0 11,-4.92487 11,-11 0,-6.07513 -4.924868,-11 -11,-11 z m 0,1 c 5.522847,0 10,4.47715 10,10 0,5.52285 -4.477153,10 -10,10 -5.522847,0 -10,-4.47715 -10,-10 0,-5.52285 4.477153,-10 10,-10 z"
         style="opacity:0.3;fill:currentColor" />
    </g>
    <g
       id="horizontal-slider-focus"
       transform="translate(52,2)"
       style="opacity:0">
      <rect
         style="opacity:0.00100002;fill:#000000;fill-opacity:0.00392157;stroke:none"
         id="rect3104"
         width="24"
         height="24"
         x="14"
         y="96" />
      <path
         inkscape:connector-curvature="0"
         id="path3106"
         d="m 26,98.000001 c -5.522847,0 -10,4.477149 -10,9.999999 0,5.52285 4.477153,10 10,10 5.522847,0 10,-4.47715 10,-10 0,-5.52285 -4.477153,-9.999999 -10,-9.999999 z m 0,1 c 4.970563,0 9,4.029439 9,8.999999 0,4.97056 -4.029437,9 -9,9 -4.970563,0 -9,-4.02944 -9,-9 0,-4.97056 4.029437,-8.999999 9,-8.999999 z"
         style="fill:currentColor"
         class="ColorScheme-ButtonFocus" />
      <path
         style="opacity:0.3;fill:currentColor"
         d="m 26,97 c -6.075132,0 -11,4.92487 -11,11 0,6.07513 4.924868,11 11,11 6.075132,0 11,-4.92487 11,-11 0,-6.07513 -4.924868,-11 -11,-11 z m 0,1 c 5.522847,0 10,4.47715 10,10 0,5.52285 -4.477153,10 -10,10 -5.522847,0 -10,-4.47715 -10,-10 0,-5.52285 4.477153,-10 10,-10 z"
         id="path3108"
         class="ColorScheme-ButtonFocus"
         inkscape:connector-curvature="0" />
    </g>
    <g
       transform="matrix(1.2,0,0,1.2,-2.2,63.2)"
       id="horizontal-slider-handle"
       inkscape:label="horizontal-slider-handle"
       style="opacity:0">
      <rect
         style="opacity:0.00100002;fill:#000000;fill-opacity:0.00392157;stroke:none"
         id="rect3785-4"
         width="24"
         height="24"
         x="14"
         y="42"
         transform="matrix(0.83333333,0,0,0.83333333,-5.6666667,-6)" />
      <path
         sodipodi:type="arc"
         style="opacity:0.5;fill:currentColor"
         id="path3921-2"
         sodipodi:cx="14"
         sodipodi:cy="40"
         sodipodi:rx="4"
         sodipodi:ry="4"
         d="m 18,40 a 4,4 0 0 1 -4,4 4,4 0 0 1 -4,-4 4,4 0 0 1 4,-4 4,4 0 0 1 4,4 z"
         transform="matrix(2.0833333,0,0,2.0833333,-13.166666,-44.333332)"
         class="ColorScheme-ButtonText" />
      <circle
         transform="matrix(1.875,0,0,1.875,-10.25,-36)"
         id="path3923-4"
         style="fill:currentColor"
         class="ColorScheme-ButtonBackground"
         cx="14"
         cy="40"
         r="4" />
    </g>
    <g
       transform="translate(24,-34)"
       id="vertical-slider-hover"
       style="opacity:0">
      <rect
         style="opacity:0.00100002;fill:#000000;fill-opacity:0.00392157;stroke:none"
         id="rect3900"
         width="24"
         height="24"
         x="14"
         y="96" />
      <path
         inkscape:connector-curvature="0"
         id="path3902"
         d="m 26,98.000001 c -5.522847,0 -10,4.477149 -10,9.999999 0,5.52285 4.477153,10 10,10 5.522847,0 10,-4.47715 10,-10 0,-5.52285 -4.477153,-9.999999 -10,-9.999999 z m 0,1 c 4.970563,0 9,4.029439 9,8.999999 0,4.97056 -4.029437,9 -9,9 -4.970563,0 -9,-4.02944 -9,-9 0,-4.97056 4.029437,-8.999999 9,-8.999999 z"
         style="fill:currentColor"
         class="ColorScheme-Highlight" />
      <path
         style="opacity:0.3;fill:currentColor"
         d="m 26,97 c -6.075132,0 -11,4.92487 -11,11 0,6.07513 4.924868,11 11,11 6.075132,0 11,-4.92487 11,-11 0,-6.07513 -4.924868,-11 -11,-11 z m 0,1 c 5.522847,0 10,4.47715 10,10 0,5.52285 -4.477153,10 -10,10 -5.522847,0 -10,-4.47715 -10,-10 0,-5.52285 4.477153,-10 10,-10 z"
         id="path3904"
         class="ColorScheme-Highlight"
         inkscape:connector-curvature="0" />
    </g>
    <g
       transform="translate(64,-22)"
       id="vertical-slider-focus"
       style="opacity:0">
      <rect
         y="96"
         x="14"
         height="24"
         width="24"
         id="rect3908"
         style="opacity:0.00100002;fill:#000000;fill-opacity:0.00392157;stroke:none" />
      <path
         class="ColorScheme-ButtonFocus"
         style="fill:currentColor"
         d="m 26,98.000001 c -5.522847,0 -10,4.477149 -10,9.999999 0,5.52285 4.477153,10 10,10 5.522847,0 10,-4.47715 10,-10 0,-5.52285 -4.477153,-9.999999 -10,-9.999999 z m 0,1 c 4.970563,0 9,4.029439 9,8.999999 0,4.97056 -4.029437,9 -9,9 -4.970563,0 -9,-4.02944 -9,-9 0,-4.97056 4.029437,-8.999999 9,-8.999999 z"
         id="path3910"
         inkscape:connector-curvature="0" />
      <path
         inkscape:connector-curvature="0"
         class="ColorScheme-ButtonFocus"
         id="path3912"
         d="m 26,97 c -6.075132,0 -11,4.92487 -11,11 0,6.07513 4.924868,11 11,11 6.075132,0 11,-4.92487 11,-11 0,-6.07513 -4.924868,-11 -11,-11 z m 0,1 c 5.522847,0 10,4.47715 10,10 0,5.52285 -4.477153,10 -10,10 -5.522847,0 -10,-4.47715 -10,-10 0,-5.52285 4.477153,-10 10,-10 z"
         style="opacity:0.3;fill:currentColor" />
    </g>
    <g
       inkscape:label="horizontal-slider-handle"
       id="vertical-slider-handle"
       transform="matrix(1.2,0,0,1.2,-2.2,27.2)"
       style="opacity:0">
      <rect
         transform="matrix(0.83333333,0,0,0.83333333,-5.6666667,-6)"
         y="42"
         x="14"
         height="24"
         width="24"
         id="rect3922"
         style="opacity:0.00100002;fill:#000000;fill-opacity:0.00392157;stroke:none" />
      <path
         class="ColorScheme-ButtonText"
         transform="matrix(2.0833333,0,0,2.0833333,-13.166666,-44.333332)"
         d="m 18,40 a 4,4 0 0 1 -4,4 4,4 0 0 1 -4,-4 4,4 0 0 1 4,-4 4,4 0 0 1 4,4 z"
         sodipodi:ry="4"
         sodipodi:rx="4"
         sodipodi:cy="40"
         sodipodi:cx="14"
         id="path3924"
         style="opacity:0.5;fill:currentColor"
         sodipodi:type="arc" />
      <circle
         class="ColorScheme-ButtonBackground"
         style="fill:currentColor"
         id="path3926"
         transform="matrix(1.875,0,0,1.875,-10.25,-36)"
         cx="14"
         cy="40"
         r="4" />
    </g>
    <g
       id="horizontal-slider-shadow"
       style="opacity:0">
      <rect
         y="98"
         x="96"
         height="24"
         width="24"
         id="rect3114"
         style="opacity:0.00100002;fill:#000000;fill-opacity:0.00392157;stroke:none" />
      <path
         inkscape:connector-curvature="0"
         id="path3118"
         d="m 108,99 c -6.07513,0 -11,4.92487 -11,11 0,6.07513 4.92487,11 11,11 6.07513,0 11,-4.92487 11,-11 0,-6.07513 -4.92487,-11 -11,-11 z m 0,1 c 5.52285,0 10,4.47715 10,10 0,5.52285 -4.47715,10 -10,10 -5.52285,0 -10,-4.47715 -10,-10 0,-5.52285 4.47715,-10 10,-10 z"
         style="opacity:0.05;color:#3daee9;fill:#000000;fill-opacity:1" />
      <path
         id="path3037"
         d="M 115.71875,103.625 C 117.14531,105.35359 118,107.58375 118,110 c 0,2.76963 -1.14961,5.2516 -2.96875,7.0625 C 113.2229,118.86267 110.75322,120 108,120 c -2.76143,0 -5.25285,-1.12786 -7.0625,-2.9375 1.83415,2.22247 4.61215,3.625 7.71875,3.625 5.52285,0 10,-4.47715 10,-10 0,-2.76143 -1.12786,-5.25286 -2.9375,-7.0625 z"
         style="opacity:0.15;color:#3daee9;fill:#000000;fill-opacity:1"
         inkscape:connector-curvature="0" />
    </g>
    <g
       id="vertical-slider-shadow"
       transform="translate(3,-36)"
       style="opacity:0">
      <rect
         style="opacity:0.00100002;fill:#000000;fill-opacity:0.00392157;stroke:none"
         id="rect3824"
         width="24"
         height="24"
         x="96"
         y="98" />
      <path
         style="opacity:0.05;color:#3daee9;fill:#000000;fill-opacity:1"
         d="m 108,99 c -6.07513,0 -11,4.92487 -11,11 0,6.07513 4.92487,11 11,11 6.07513,0 11,-4.92487 11,-11 0,-6.07513 -4.92487,-11 -11,-11 z m 0,1 c 5.52285,0 10,4.47715 10,10 0,5.52285 -4.47715,10 -10,10 -5.52285,0 -10,-4.47715 -10,-10 0,-5.52285 4.47715,-10 10,-10 z"
         id="path3826"
         inkscape:connector-curvature="0" />
      <path
         inkscape:connector-curvature="0"
         style="opacity:0.15;color:#3daee9;fill:#000000;fill-opacity:1"
         d="M 115.71875,103.625 C 117.14531,105.35359 118,107.58375 118,110 c 0,2.76963 -1.14961,5.2516 -2.96875,7.0625 C 113.2229,118.86267 110.75322,120 108,120 c -2.76143,0 -5.25285,-1.12786 -7.0625,-2.9375 1.83415,2.22247 4.61215,3.625 7.71875,3.625 5.52285,0 10,-4.47715 10,-10 0,-2.76143 -1.12786,-5.25286 -2.9375,-7.0625 z"
         id="path3828" />
    </g>
    <circle
       style="fill:#31363b;fill-opacity:1;stroke:none;stroke-opacity:1"
       id="hint-handle-size"
       cx="114.14693"
       cy="44.591011"
       r="10" />
    <path
       id="groove-vertical-top"
       d="m 19,29 v 3 h 3 v -3 z"
       style="opacity:0.3;fill:currentColor"
       inkscape:connector-curvature="0"
       class="ColorScheme-Text" />
    <path
       inkscape:connector-curvature="0"
       sodipodi:nodetypes="ccccc"
       id="groove-vertical-topleft"
       d="M 18,29 H 4 v 3 h 14 z"
       style="opacity:0.3;fill:currentColor;stroke-width:2.16024685"
       class="ColorScheme-Text" />
    <path
       inkscape:connector-curvature="0"
       style="opacity:0.3;fill:currentColor"
       d="m 19,40 v -3 h 3 v 3 z"
       id="groove-vertical-bottom"
       class="ColorScheme-Text" />
    <path
       style="opacity:0.3;fill:currentColor;stroke-width:2.16024685"
       d="M 18,40 H 4 v -3 h 14 z"
       id="groove-vertical-bottomleft"
       sodipodi:nodetypes="ccccc"
       inkscape:connector-curvature="0"
       class="ColorScheme-Text" />
    <path
       inkscape:connector-curvature="0"
       style="opacity:0.3;fill:currentColor"
       d="m 19,33 v 3 h 3 v -3 z"
       id="groove-vertical-center"
       class="ColorScheme-Text" />
    <path
       id="groove-vertical-left"
       d="m 4,33 v 3 h 14 v -3 z"
       style="opacity:0.3;fill:currentColor;stroke-width:2.16024685"
       inkscape:connector-curvature="0"
       class="ColorScheme-Text" />
    <path
       class="ColorScheme-Highlight"
       inkscape:connector-curvature="0"
       style="fill:currentColor;fill-opacity:1"
       d="m 51,29 v 3 h 3 v -3 z"
       id="groove-highlight-vertical-top" />
    <path
       class="ColorScheme-Highlight"
       style="fill:currentColor;fill-opacity:1"
       d="m 50,29 h -3 v 3 h 3 z"
       id="groove-highlight-vertical-topleft"
       sodipodi:nodetypes="ccccc"
       inkscape:connector-curvature="0" />
    <path
       class="ColorScheme-Highlight"
       id="groove-highlight-vertical-bottom"
       d="m 51,40 v -3 h 3 v 3 z"
       style="fill:currentColor;fill-opacity:1"
       inkscape:connector-curvature="0" />
    <path
       class="ColorScheme-Highlight"
       inkscape:connector-curvature="0"
       sodipodi:nodetypes="ccccc"
       id="groove-highlight-vertical-bottomleft"
       d="m 50,40 h -3 v -3 h 3 z"
       style="fill:currentColor;fill-opacity:1" />
    <path
       class="ColorScheme-Highlight"
       id="groove-highlight-vertical-center"
       d="m 51,33 v 3 h 3 v -3 z"
       style="fill:currentColor;fill-opacity:1"
       inkscape:connector-curvature="0" />
    <path
       class="ColorScheme-Highlight"
       inkscape:connector-curvature="0"
       style="fill:currentColor;fill-opacity:1"
       d="m 47,33 v 3 h 3 v -3 z"
       id="groove-highlight-vertical-left" />
    <g
       id="groove-highlight-vertical-topright">
      <path
         style="fill:currentColor;fill-opacity:1"
         d="m 58,32 v -3 h -3 v 3 z"
         id="path888"
         sodipodi:nodetypes="ccccc"
         inkscape:connector-curvature="0"
         class="ColorScheme-Highlight" />
      <path
         inkscape:connector-curvature="0"
         class="ColorScheme-Text"
         id="rect1176"
         d="m 58,29 v 1 h 5 v 2 h 1 v -2 -1 z"
         style="fill:currentColor" />
    </g>
    <g
       id="groove-highlight-vertical-right">
      <path
         id="path900"
         d="m 55,33 v 3 h 3 v -3 z"
         style="fill:currentColor;fill-opacity:1"
         inkscape:connector-curvature="0"
         class="ColorScheme-Highlight" />
      <rect
         class="ColorScheme-Text"
         y="33"
         x="63"
         height="3"
         width="1"
         id="rect1181"
         style="fill:currentColor" />
    </g>
    <g
       id="groove-highlight-vertical-bottomright">
      <path
         inkscape:connector-curvature="0"
         sodipodi:nodetypes="ccccc"
         id="path894"
         d="m 58,37 v 3 h -3 v -3 z"
         style="fill:currentColor;fill-opacity:1"
         class="ColorScheme-Highlight" />
      <rect
         class="ColorScheme-Text"
         y="37"
         x="63"
         height="3"
         width="1"
         id="rect1183"
         style="fill:currentColor" />
    </g>
    <g
       id="groove-vertical-topright">
      <path
         class="ColorScheme-Text"
         inkscape:connector-curvature="0"
         sodipodi:nodetypes="ccccc"
         id="path1203"
         d="M 37,32 V 29 H 23 v 3 z"
         style="opacity:0.3;fill:currentColor;stroke-width:2.16024685" />
      <rect
         y="29"
         x="42"
         height="3"
         width="1"
         id="rect1185"
         style="opacity:0;fill:#31363b;fill-opacity:1;stroke:none;stroke-width:2;stroke-linecap:square;stroke-linejoin:round;stroke-miterlimit:4;stroke-dasharray:none;stroke-dashoffset:0;stroke-opacity:1" />
    </g>
    <g
       id="groove-vertical-right">
      <path
         class="ColorScheme-Text"
         inkscape:connector-curvature="0"
         style="opacity:0.3;fill:currentColor;stroke-width:2.16024685"
         d="m 23,33 v 3 h 14 v -3 z"
         id="path1205" />
      <rect
         y="33"
         x="42"
         height="3"
         width="1"
         id="rect1187"
         style="opacity:0;fill:#31363b;fill-opacity:1;stroke:none;stroke-width:2;stroke-linecap:square;stroke-linejoin:round;stroke-miterlimit:4;stroke-dasharray:none;stroke-dashoffset:0;stroke-opacity:1" />
    </g>
    <g
       id="groove-vertical-bottomright">
      <path
         class="ColorScheme-Text"
         style="opacity:0.3;fill:currentColor;stroke-width:2.16024685"
         d="m 37,37 v 3 H 23 v -3 z"
         id="path1207"
         sodipodi:nodetypes="ccccc"
         inkscape:connector-curvature="0" />
      <rect
         y="37"
         x="42"
         height="3"
         width="1"
         id="rect1189"
         style="opacity:0;fill:#31363b;fill-opacity:1;stroke:none;stroke-width:2;stroke-linecap:square;stroke-linejoin:round;stroke-miterlimit:4;stroke-dasharray:none;stroke-dashoffset:0;stroke-opacity:1" />
    </g>
    <path
       class="ColorScheme-Text"
       inkscape:connector-curvature="0"
       style="opacity:0.3;fill:currentColor"
       d="m 82,19 h -3 v 3 h 3 z"
       id="groove-right" />
    <path
       class="ColorScheme-Text"
       style="opacity:0.3;fill:currentColor;stroke-width:2.16024685"
       d="M 82,18 V 4 h -3 v 14 z"
       id="groove-topright"
       sodipodi:nodetypes="ccccc"
       inkscape:connector-curvature="0" />
    <path
       class="ColorScheme-Text"
       id="groove-left"
       d="m 71,19 h 3 v 3 h -3 z"
       style="opacity:0.3;fill:currentColor"
       inkscape:connector-curvature="0" />
    <path
       class="ColorScheme-Text"
       inkscape:connector-curvature="0"
       sodipodi:nodetypes="ccccc"
       id="groove-topleft"
       d="M 71,18 V 4 h 3 v 14 z"
       style="opacity:0.3;fill:currentColor;stroke-width:2.16024685" />
    <path
       class="ColorScheme-Text"
       id="groove-center"
       d="m 78,19 h -3 v 3 h 3 z"
       style="opacity:0.3;fill:currentColor"
       inkscape:connector-curvature="0" />
    <path
       class="ColorScheme-Text"
       inkscape:connector-curvature="0"
       style="opacity:0.3;fill:currentColor;stroke-width:2.16024685"
       d="m 78,4 h -3 v 14 h 3 z"
       id="groove-top" />
    <path
       id="groove-highlight-right"
       d="m 98,8 h -3 v 3 h 3 z"
       style="fill:currentColor;fill-opacity:1"
       inkscape:connector-curvature="0"
       class="ColorScheme-Highlight" />
    <path
       inkscape:connector-curvature="0"
       sodipodi:nodetypes="ccccc"
       id="groove-highlight-topright"
       d="M 98,7 V 4 h -3 v 3 z"
       style="fill:currentColor;fill-opacity:1"
       class="ColorScheme-Highlight" />
    <path
       inkscape:connector-curvature="0"
       style="fill:currentColor;fill-opacity:1"
       d="m 87,8 h 3 v 3 h -3 z"
       id="groove-highlight-left"
       class="ColorScheme-Highlight" />
    <path
       style="fill:currentColor;fill-opacity:1"
       d="M 87,7 V 4 h 3 v 3 z"
       id="groove-highlight-topleft"
       sodipodi:nodetypes="ccccc"
       inkscape:connector-curvature="0"
       class="ColorScheme-Highlight" />
    <path
       inkscape:connector-curvature="0"
       style="fill:currentColor;fill-opacity:1"
       d="m 94,8 h -3 v 3 h 3 z"
       id="groove-highlight-center"
       class="ColorScheme-Highlight" />
    <path
       id="groove-highlight-top"
       d="m 94,4 h -3 v 3 h 3 z"
       style="fill:currentColor;fill-opacity:1"
       inkscape:connector-curvature="0"
       class="ColorScheme-Highlight" />
    <g
       id="groove-highlight-bottomright"
       transform="rotate(90,85,42)">
      <path
         class="ColorScheme-Highlight"
         inkscape:connector-curvature="0"
         sodipodi:nodetypes="ccccc"
         id="path921"
         d="m 58,32 v -3 h -3 v 3 z"
         style="fill:currentColor;fill-opacity:1" />
      <path
         style="fill:currentColor"
         d="m 58,29 v 1 h 5 v 2 h 1 v -2 -1 z"
         id="path923"
         class="ColorScheme-Text"
         inkscape:connector-curvature="0" />
    </g>
    <g
       id="groove-highlight-bottom"
       transform="rotate(90,85,42)">
      <path
         class="ColorScheme-Highlight"
         inkscape:connector-curvature="0"
         style="fill:currentColor;fill-opacity:1"
         d="m 55,33 v 3 h 3 v -3 z"
         id="path927" />
      <rect
         style="fill:currentColor"
         id="rect929"
         width="1"
         height="3"
         x="63"
         y="33"
         class="ColorScheme-Text" />
    </g>
    <g
       id="groove-highlight-bottomleft"
       transform="rotate(90,85,42)">
      <path
         class="ColorScheme-Highlight"
         style="fill:currentColor;fill-opacity:1"
         d="m 58,37 v 3 h -3 v -3 z"
         id="path933"
         sodipodi:nodetypes="ccccc"
         inkscape:connector-curvature="0" />
      <rect
         style="fill:currentColor"
         id="rect935"
         width="1"
         height="3"
         x="63"
         y="37"
         class="ColorScheme-Text" />
    </g>
    <g
       id="groove-bottomright"
       transform="rotate(90,55.5,55.5)">
      <path
         style="opacity:0.3;fill:currentColor;stroke-width:2.16024685"
         d="M 37,32 V 29 H 23 v 3 z"
         id="path939"
         sodipodi:nodetypes="ccccc"
         inkscape:connector-curvature="0"
         class="ColorScheme-Text" />
      <rect
         style="opacity:0;fill:#31363b;fill-opacity:1;stroke:none;stroke-width:2;stroke-linecap:square;stroke-linejoin:round;stroke-miterlimit:4;stroke-dasharray:none;stroke-dashoffset:0;stroke-opacity:1"
         id="rect941"
         width="1"
         height="3"
         x="42"
         y="29" />
    </g>
    <g
       id="groove-bottom"
       transform="rotate(90,55.5,55.5)">
      <path
         id="path945"
         d="m 23,33 v 3 h 14 v -3 z"
         style="opacity:0.3;fill:currentColor;stroke-width:2.16024685"
         inkscape:connector-curvature="0"
         class="ColorScheme-Text" />
      <rect
         style="opacity:0;fill:#31363b;fill-opacity:1;stroke:none;stroke-width:2;stroke-linecap:square;stroke-linejoin:round;stroke-miterlimit:4;stroke-dasharray:none;stroke-dashoffset:0;stroke-opacity:1"
         id="rect947"
         width="1"
         height="3"
         x="42"
         y="33" />
    </g>
    <g
       id="groove-bottomleft"
       transform="rotate(90,55.5,55.5)">
      <path
         inkscape:connector-curvature="0"
         sodipodi:nodetypes="ccccc"
         id="path951"
         d="m 37,37 v 3 H 23 v -3 z"
         style="opacity:0.3;fill:currentColor;stroke-width:2.16024685"
         class="ColorScheme-Text" />
      <rect
         style="opacity:0;fill:#31363b;fill-opacity:1;stroke:none;stroke-width:2;stroke-linecap:square;stroke-linejoin:round;stroke-miterlimit:4;stroke-dasharray:none;stroke-dashoffset:0;stroke-opacity:1"
         id="rect953"
         width="1"
         height="3"
         x="42"
         y="37" />
    </g>
  </g>
</svg>
