<?xml version="1.0" encoding="UTF-8" standalone="no"?>
<svg
   width="257"
   height="161"
   id="svg7080"
   sodipodi:version="0.32"
   inkscape:version="1.2.1 (9c6d41e410, 2022-07-14, custom)"
   version="1.0"
   sodipodi:docname="viewitem.svg"
   inkscape:output_extension="org.inkscape.output.svgz.inkscape"
   xmlns:inkscape="http://www.inkscape.org/namespaces/inkscape"
   xmlns:sodipodi="http://sodipodi.sourceforge.net/DTD/sodipodi-0.dtd"
   xmlns:xlink="http://www.w3.org/1999/xlink"
   xmlns="http://www.w3.org/2000/svg"
   xmlns:svg="http://www.w3.org/2000/svg"
   xmlns:rdf="http://www.w3.org/1999/02/22-rdf-syntax-ns#"
   xmlns:cc="http://creativecommons.org/ns#"
   xmlns:dc="http://purl.org/dc/elements/1.1/">
  <sodipodi:namedview
     id="base"
     pagecolor="#b6b7b8"
     bordercolor="#666666"
     borderopacity="1.0"
     inkscape:pageopacity="1"
     inkscape:pageshadow="2"
     inkscape:zoom="5.6568543"
     inkscape:cx="94.13359"
     inkscape:cy="77.604969"
     inkscape:document-units="px"
     inkscape:current-layer="layer1"
     showgrid="true"
     inkscape:window-width="1920"
     inkscape:window-height="1025"
     inkscape:window-x="0"
     inkscape:window-y="0"
     inkscape:snap-global="true"
     inkscape:object-paths="false"
     inkscape:object-nodes="false"
     gridtolerance="3"
     inkscape:window-maximized="1"
     inkscape:snap-bbox="true"
     inkscape:bbox-nodes="true"
     inkscape:snap-grids="false"
     inkscape:snap-to-guides="false"
     inkscape:snap-nodes="false"
     inkscape:document-rotation="0"
     inkscape:showpageshadow="2"
     inkscape:pagecheckerboard="0"
     inkscape:deskcolor="#b6b7b8">
    <inkscape:grid
       type="xygrid"
       id="grid7342"
       visible="true"
       enabled="true"
       empspacing="5"
       snapvisiblegridlinesonly="true"
       color="#0000ff"
       opacity="0.01960784"
       empcolor="#0000ff"
       empopacity="0.03921569" />
  </sodipodi:namedview>
  <defs
     id="defs7082">
    <linearGradient
       id="linearGradient8746">
      <stop
         id="stop8748"
         offset="0"
         style="stop-color:#ffffff;stop-opacity:1;" />
      <stop
         id="stop8750"
         offset="1"
         style="stop-color:#ffffff;stop-opacity:0;" />
    </linearGradient>
    <linearGradient
       id="linearGradient8734">
      <stop
         id="stop8736"
         offset="0"
         style="stop-color:#ffffff;stop-opacity:1;" />
      <stop
         id="stop8738"
         offset="1"
         style="stop-color:#ffffff;stop-opacity:0;" />
    </linearGradient>
    <radialGradient
       r="70"
       fy="229.36844"
       fx="355.28513"
       cy="229.36844"
       cx="355.28513"
       gradientTransform="matrix(1.7747169,0,0,1.1566649,-709.57584,314.76359)"
       gradientUnits="userSpaceOnUse"
       id="radialGradient12915"
       xlink:href="#linearGradient8734"
       inkscape:collect="always" />
    <radialGradient
       r="70"
       fy="222.73233"
       fx="355.05859"
       cy="222.73233"
       cx="355.05859"
       gradientTransform="matrix(1.7796094,-6.4399432e-7,0,3.4826371,-711.1346,-185.51868)"
       gradientUnits="userSpaceOnUse"
       id="radialGradient12922"
       xlink:href="#linearGradient8734"
       inkscape:collect="always" />
    <radialGradient
       r="70"
       fy="236.55251"
       fx="355.26648"
       cy="236.55251"
       cx="355.26648"
       gradientTransform="matrix(1.7796094,0,0,1.1558382,-711.13504,274.58542)"
       gradientUnits="userSpaceOnUse"
       id="radialGradient12928"
       xlink:href="#linearGradient8734"
       inkscape:collect="always" />
    <radialGradient
       r="70"
       fy="236.55327"
       fx="355.26645"
       cy="236.55327"
       cx="355.26645"
       gradientTransform="matrix(0.6520708,-6.4204842e-7,0,1.1584286,-351.80505,274.01364)"
       gradientUnits="userSpaceOnUse"
       id="radialGradient12935"
       xlink:href="#linearGradient8734"
       inkscape:collect="always" />
    <radialGradient
       r="70"
       fy="269.55038"
       fx="353.74701"
       cy="269.55038"
       cx="353.74701"
       gradientTransform="matrix(0.6498357,0,0,1.1513867,-350.8407,269.14221)"
       gradientUnits="userSpaceOnUse"
       id="radialGradient12941"
       xlink:href="#linearGradient8746"
       inkscape:collect="always" />
    <radialGradient
       r="70"
       fy="229.36844"
       fx="355.28513"
       cy="229.36844"
       cx="355.28513"
       gradientTransform="matrix(-1.7747169,0,0,1.1550902,469.58919,315.1048)"
       gradientUnits="userSpaceOnUse"
       id="radialGradient12949"
       xlink:href="#linearGradient8734"
       inkscape:collect="always" />
    <radialGradient
       r="70"
       fy="222.73233"
       fx="355.05859"
       cy="222.73233"
       cx="355.05859"
       gradientTransform="matrix(-1.7796094,-6.4399419e-7,0,3.4826364,471.13462,-185.51859)"
       gradientUnits="userSpaceOnUse"
       id="radialGradient12955"
       xlink:href="#linearGradient8734"
       inkscape:collect="always" />
    <radialGradient
       r="70"
       fy="236.55251"
       fx="355.26648"
       cy="236.55251"
       cx="355.26648"
       gradientTransform="matrix(-1.7796094,0,0,1.1576875,471.13463,274.18938)"
       gradientUnits="userSpaceOnUse"
       id="radialGradient12962"
       xlink:href="#linearGradient8734"
       inkscape:collect="always" />
    <linearGradient
       inkscape:collect="always"
       xlink:href="#linearGradient4254-7"
       id="linearGradient4306"
       x1="317.91653"
       y1="909.77173"
       x2="317.91653"
       y2="912.77173"
       gradientUnits="userSpaceOnUse" />
    <linearGradient
       id="linearGradient4254-7">
      <stop
         style="stop-color:#888888;stop-opacity:1;"
         offset="0"
         id="stop4256" />
      <stop
         style="stop-color:#232323;stop-opacity:1;"
         offset="1"
         id="stop4258" />
    </linearGradient>
    <linearGradient
       id="linearGradient5705">
      <stop
         style="stop-color:#efefef;stop-opacity:0.93599999;"
         offset="0"
         id="stop5707" />
      <stop
         style="stop-color:#ededed;stop-opacity:0;"
         offset="1"
         id="stop5709" />
    </linearGradient>
    <style
       id="current-color-scheme"
       type="text/css">
      .ColorScheme-Text {
        color:#7B7C7E;
      }
      .ColorScheme-Background{
        color:#EFF0F1;
      }
      .ColorScheme-Highlight{
        color:#3DAEE6;
      }
      .ColorScheme-ViewText {
        color:#7B7C7E;
      }
      .ColorScheme-ViewBackground{
        color:#FCFCFC;
      }
      .ColorScheme-ViewHover {
        color:#3DAEE6;
      }
      .ColorScheme-ViewFocus{
        color:#1E92FF;
      }
      .ColorScheme-ButtonText {
        color:#7B7C7E;
      }
      .ColorScheme-ButtonBackground{
        color:#EFF0F1;
      }
      .ColorScheme-ButtonHover {
        color:#3DAEE6;
      }
      .ColorScheme-ButtonFocus{
        color:#1E92FF;
      }</style>
  </defs>
  <metadata
     id="metadata7085">
    <rdf:RDF>
      <cc:Work
         rdf:about="">
        <dc:format>image/svg+xml</dc:format>
        <dc:type
           rdf:resource="http://purl.org/dc/dcmitype/StillImage" />
        <dc:title />
      </cc:Work>
    </rdf:RDF>
  </metadata>
  <g
     inkscape:label="Camada 1"
     inkscape:groupmode="layer"
     id="layer1"
     transform="translate(297,-432)">
    <rect
       style="opacity:0.875;fill:#008000;fill-opacity:1;stroke:none"
       id="hint-tile-center"
       width="40"
       height="40"
       x="-247.07144"
       y="341.67673" />
    <path
       style="opacity:0.005;fill:#ffffff;fill-opacity:0.07843137;fill-rule:nonzero;stroke:none"
       d="m -167.00001,449.01572 0,48 48,0 0,-48 -48,0 z"
       id="normal-center"
       inkscape:connector-curvature="0" />
    <g
       id="normal-bottom"
       transform="matrix(0.36657704,0,0,0.49999749,-236.71202,78.073551)"
       style="opacity:0.00499998">
      <g
         id="g4980">
        <path
           inkscape:connector-curvature="0"
           style="opacity:0.82272728;fill:#ffffff;fill-opacity:0.07843137;fill-rule:nonzero;stroke:none"
           d="m 190.12705,845.85714 0,4 130.9842,-0.0625 0,-3.9375 -130.9842,0 z"
           id="path4983" />
        <path
           inkscape:connector-curvature="0"
           id="path4985"
           d="m 190.14285,849.85714 0,1 131,0 0,-1 -131,0 z"
           style="opacity:0.85;fill:#000000;fill-opacity:0.15686275;fill-rule:nonzero;stroke:none" />
        <path
           style="fill:#ffffff;fill-opacity:0.15686275;fill-rule:nonzero;stroke:none"
           d="m 190.14285,848.85714 0,1 131,0 0,-1 z"
           id="path4987"
           inkscape:connector-curvature="0"
           sodipodi:nodetypes="ccccc" />
      </g>
      <rect
         style="opacity:0.52100004;fill:#ffffff;fill-opacity:0;stroke:none"
         id="rect4989"
         width="1"
         height="2.000037"
         x="547"
         y="869"
         transform="translate(-342.85715,-17.142857)" />
    </g>
    <g
       id="normal-bottomleft"
       transform="matrix(0.5714288,0,0,0.49999749,-278.65311,78.073551)"
       style="opacity:0.00499998">
      <g
         id="g4993">
        <path
           id="path4995"
           d="m 188.6741,850.85716 c -1.94821,0 -3.53125,-1.58839 -3.53125,-3.53125 l 0,-1.46875 1,0 0,1.46875 c 0,1.40502 1.11588,2.53125 2.53125,2.53125 l 1.46875,0 0,1 -1.46875,0 z"
           style="opacity:0.85;fill:#000000;fill-opacity:0.15686275;fill-rule:nonzero;stroke:none"
           inkscape:connector-curvature="0" />
        <path
           id="path4997"
           d="m 190.14285,849.8572 0,-4 -4,0 0,1.46875 c 0,1.40502 1.11588,2.53125 2.53125,2.53125 l 1.46875,0 z"
           style="opacity:0.82272728;fill:#ffffff;fill-opacity:0.07843137;fill-rule:nonzero;stroke:none"
           inkscape:connector-curvature="0" />
        <path
           style="fill:#ffffff;fill-opacity:0.15686275;stroke:none"
           d="m 188.74285,849.85718 c -1.66084,0 -2.6,-1.19855 -2.6,-2.7 l 0,-1.3 1,0 -0.021,1.29373 c -0.0208,1.28062 0.23073,1.70627 1.62099,1.70627 l 1.4,0 0,1 z"
           id="path4999"
           inkscape:connector-curvature="0"
           sodipodi:nodetypes="ccccscccc" />
      </g>
      <rect
         style="opacity:0.52100004;fill:#ffffff;fill-opacity:0;stroke:none"
         id="rect5001"
         width="2.0000029"
         height="2.0000634"
         x="183.14285"
         y="851.85712" />
    </g>
    <g
       id="normal-left"
       transform="matrix(0.5714288,0,0,3.0009825,-278.65311,-2041.3868)"
       style="opacity:0.00499998">
      <g
         id="g5005">
        <path
           id="path5007"
           d="m 186.14285,829.85712 0,16 4,0 0,-16 -4,0 z"
           style="opacity:0.82272728;fill:#ffffff;fill-opacity:0.07843137;fill-rule:nonzero;stroke:none"
           inkscape:connector-curvature="0" />
        <path
           style="opacity:0.85;fill:#000000;fill-opacity:0.15686275;fill-rule:nonzero;stroke:none"
           d="m 185.14285,829.85715 0,15.99999 1,0 0,-15.99999 -1,0 z"
           id="path5009"
           inkscape:connector-curvature="0" />
        <path
           inkscape:connector-curvature="0"
           id="path5011"
           d="m 186.14285,829.85715 0,15.99999 1,0 0,-15.99999 -1,0 z"
           style="fill:#ffffff;fill-opacity:0.15686275;fill-rule:nonzero;stroke:none" />
      </g>
      <rect
         style="opacity:0.52100004;fill:#ffffff;fill-opacity:0;stroke:none"
         id="rect5013"
         width="2.0000029"
         height="3"
         x="183.14285"
         y="834.85712" />
    </g>
    <g
       id="normal-topleft"
       transform="matrix(0.5714288,0,0,0.57143084,-278.65311,-25.205995)"
       style="opacity:0.00499998">
      <g
         id="g5017">
        <path
           style="opacity:0.82272728;fill:#ffffff;fill-opacity:0.07843137;fill-rule:nonzero;stroke:none"
           d="m 186.14285,829.8571 4,0 0,-4 -1.46875,0 c -1.40502,0 -2.53125,1.11588 -2.53125,2.53125 l 0,1.46875 z"
           id="path5019"
           inkscape:connector-curvature="0" />
        <path
           inkscape:connector-curvature="0"
           style="opacity:0.85;fill:#000000;fill-opacity:0.15686275;fill-rule:nonzero;stroke:none"
           d="m 185.14285,828.3884 c 0,-1.94821 1.58839,-3.53125 3.53125,-3.53125 l 1.46875,0 0,1 -1.46875,0 c -1.40502,0 -2.53125,1.11588 -2.53125,2.53125 l 0,1.46875 -1,0 0,-1.46875 z"
           id="path5021" />
        <path
           id="path5023"
           d="m 186.14285,829.8571 1,0 0,-1 c 0,-1.41537 0.59498,-2 2,-2 l 1,0 0,-1 -1.46875,0 c -1.40502,0 -2.53125,1.11588 -2.53125,2.53125 l 0,1.46875 z"
           style="fill:#ffffff;fill-opacity:0.15686275;fill-rule:nonzero;stroke:none"
           inkscape:connector-curvature="0" />
      </g>
      <rect
         style="opacity:0.52100004;fill:#ffffff;fill-opacity:0;stroke:none"
         id="rect5025"
         width="2.0000029"
         height="1.9999441"
         x="183.14285"
         y="822.85718" />
    </g>
    <g
       id="normal-top"
       transform="matrix(0.36657704,0,0,0.57143165,-236.71202,-25.190896)"
       style="opacity:0.00499998">
      <g
         id="g5029">
        <path
           style="opacity:0.82272728;fill:#ffffff;fill-opacity:0.07843137;fill-rule:nonzero;stroke:none"
           d="m 190.14286,825.85714 0,4 131,0 0,-4 -131,0 z"
           id="path5031"
           inkscape:connector-curvature="0" />
        <path
           id="path5033"
           d="m 190.14285,824.85714 0,1 131,0 0,-1 -131,0 z"
           style="opacity:0.85;fill:#000000;fill-opacity:0.15686275;fill-rule:nonzero;stroke:none"
           inkscape:connector-curvature="0" />
        <path
           inkscape:connector-curvature="0"
           style="fill:#ffffff;fill-opacity:0.15686275;fill-rule:nonzero;stroke:none"
           d="m 190.14285,825.85714 0,1 131,0 0,-1 -131,0 z"
           id="path5035" />
      </g>
      <rect
         y="822.85718"
         x="200.14285"
         height="1.9999441"
         width="3"
         id="rect5037"
         style="opacity:0.52100004;fill:#ffffff;fill-opacity:0;stroke:none" />
    </g>
    <g
       id="normal-topright"
       transform="matrix(0.57142857,0,0,0.57143165,-302.51021,-25.190896)"
       style="opacity:0.00499998">
      <g
         id="g5041">
        <path
           id="path5043"
           d="m 321.14285,825.85714 0,4 4,0 0,-1.46875 c 0,-1.40502 -1.11588,-2.53125 -2.53125,-2.53125 l -1.46875,0 z"
           style="opacity:0.82272728;fill:#ffffff;fill-opacity:0.07843137;fill-rule:nonzero;stroke:none"
           inkscape:connector-curvature="0" />
        <path
           id="path5045"
           d="m 322.6116,824.85714 c 1.94821,0 3.53125,1.58839 3.53125,3.53125 l 0,1.46875 -1,0 0,-1.46875 c 0,-1.40502 -1.11588,-2.53125 -2.53125,-2.53125 l -1.46875,0 0,-1 1.46875,0 z"
           style="opacity:0.85;fill:#000000;fill-opacity:0.15686275;fill-rule:nonzero;stroke:none"
           inkscape:connector-curvature="0" />
        <path
           style="fill:#ffffff;fill-opacity:0.15686275;fill-rule:nonzero;stroke:none"
           d="m 325.14285,829.8571 -1,0 0,-1 c 0,-1.41537 -0.59498,-2 -2,-2 l -1,0 0,-1 1.46875,0 c 1.40502,0 2.53125,1.11588 2.53125,2.53125 z"
           id="path5047"
           inkscape:connector-curvature="0"
           sodipodi:nodetypes="ccssccssc" />
      </g>
      <rect
         style="opacity:0.52100004;fill:#ffffff;fill-opacity:0;stroke:none"
         id="rect5049"
         width="1.9999973"
         height="1.9999441"
         x="326.14285"
         y="822.85718" />
    </g>
    <g
       id="normal-right"
       transform="matrix(0.57142857,0,0,3.0000017,-302.51021,-2040.557)"
       style="opacity:0.00499998">
      <g
         id="g5053">
        <path
           style="opacity:0.82272728;fill:#ffffff;fill-opacity:0.07843137;fill-rule:nonzero;stroke:none"
           d="m 325.14286,829.85712 0,16 -4,0 0,-16 4,0 z"
           id="path5055"
           inkscape:connector-curvature="0" />
        <path
           id="path5057"
           d="m 326.14286,829.85715 0,15.99999 -1,0 0,-15.99999 1,0 z"
           style="opacity:0.85;fill:#000000;fill-opacity:0.15686275;fill-rule:nonzero;stroke:none"
           inkscape:connector-curvature="0" />
        <path
           inkscape:connector-curvature="0"
           style="fill:#ffffff;fill-opacity:0.15686275;fill-rule:nonzero;stroke:none"
           d="m 325.14285,829.85714 0,15.99999 -1,0 0,-15.99999 1,0 z"
           id="path5059" />
      </g>
      <rect
         y="832.85712"
         x="326.14285"
         height="3"
         width="1.9999973"
         id="rect5061"
         style="opacity:0.52100004;fill:#ffffff;fill-opacity:0;stroke:none" />
    </g>
    <g
       id="normal-bottomright"
       transform="matrix(0.57142857,0,0,0.49999749,-302.51021,78.073551)"
       style="opacity:0.00499998">
      <g
         id="g5065">
        <g
           id="g5067">
          <path
             id="path5071"
             d="m 325.1429,845.85714 -4,0 0,4 1.46875,0 c 1.40502,0 2.53125,-1.11588 2.53125,-2.53125 l 0,-1.46875 z"
             style="opacity:0.82272728;fill:#ffffff;fill-opacity:0.07843137;fill-rule:nonzero;stroke:none"
             inkscape:connector-curvature="0" />
          <path
             style="fill:#ffffff;fill-opacity:0.15686275;stroke:none"
             d="m 322.14285,849.85714 c 1.59707,0 3,-0.57542 3,-2.99996 0,-0.94263 0,-1 0,-1 l -1,0 c 0,0.88676 0,0.28587 0,1 0,0.89359 -0.31679,1.99996 -2,1.99996 l -1,0 0,1 z"
             id="path5069"
             inkscape:connector-curvature="0"
             sodipodi:nodetypes="csccscccc" />
          <path
             id="path5073"
             d="m 326.14286,847.32589 c 0,1.94821 -1.58839,3.53125 -3.53125,3.53125 l -1.46875,0 0,-1 1.46875,0 c 1.40502,0 2.53125,-1.11588 2.53125,-2.53125 l 0,-1.46875 1,0 0,1.46875 z"
             style="opacity:0.85199998;fill:#000000;fill-opacity:0.15686275;fill-rule:nonzero;stroke:none"
             inkscape:connector-curvature="0" />
        </g>
      </g>
      <rect
         style="opacity:0.52100004;fill:#ffffff;fill-opacity:0;stroke:none"
         id="rect5075"
         width="1.9999973"
         height="2.0000634"
         x="326.14285"
         y="851.85712" />
    </g>
    <path
       inkscape:connector-curvature="0"
       id="hover-center"
       d="m -252,525.46828 0,48 48,0 0,-48 -48,0 z"
       style="opacity:0.3;fill:#1e92ff;fill-opacity:0;fill-rule:nonzero;stroke:none"
       class="ColorScheme-ButtonFocus"
       inkscape:label="#selected-center-5" />
    <g
       transform="matrix(1,0,0,3.0009825,-442.14285,-1964.9342)"
       id="hover-left"
       inkscape:label="#selected-left-6">
      <path
         id="path4119-9"
         d="m 186.14285,829.85712 0,16 4,0 0,-16 -4,0 z"
         style="opacity:0.3;fill:#1e92ff;fill-rule:nonzero;stroke:none;fill-opacity:0"
         inkscape:connector-curvature="0"
         class="ColorScheme-ButtonFocus" />
      <path
         class="ColorScheme-ButtonFocus"
         inkscape:connector-curvature="0"
         style="fill:#ffffff;fill-rule:nonzero;stroke:none;fill-opacity:1"
         d="m 186.14285,829.85712 0,16 1,0 0,-16 -1,0 z"
         id="path3175" />
    </g>
    <g
       transform="translate(-442.14285,-304.3891)"
       id="hover-topleft"
       inkscape:label="#selected-topleft-7">
      <path
         class="ColorScheme-ButtonFocus"
         inkscape:connector-curvature="0"
         id="path3133"
         d="m 186.14285,829.8571 4,0 0,-4 -1.46875,0 c -1.40502,0 -2.53125,1.11588 -2.53125,2.53125 l 0,1.46875 z"
         style="opacity:0.3;fill:#1e92ff;fill-opacity:0;fill-rule:nonzero;stroke:none" />
      <path
         style="fill:#ffffff;fill-opacity:1;fill-rule:nonzero;stroke:none"
         d="M 43.53125,89.4375 C 42.12623,89.4375 41,90.55338 41,91.96875 l 0,1.46875 1,0 0,-1.09375 c 0,-1.06153 0.85248,-1.90625 1.90625,-1.90625 l 1.09375,0 0,-1 -1.46875,0 z"
         transform="translate(145.14285,736.40462)"
         id="path3135"
         inkscape:connector-curvature="0"
         class="ColorScheme-ButtonFocus" />
    </g>
    <g
       transform="matrix(0.36657704,0,0,1,-321.71201,-304.38884)"
       id="hover-top"
       inkscape:label="#selected-top-3">
      <path
         style="opacity:0.3;fill:#1e92ff;fill-opacity:0;fill-rule:nonzero;stroke:none"
         d="m 190.14286,825.85714 0,4 131,0 0,-4 -131,0 z"
         id="path4143-7"
         inkscape:connector-curvature="0"
         class="ColorScheme-ButtonFocus" />
      <path
         class="ColorScheme-ButtonFocus"
         inkscape:connector-curvature="0"
         id="path3131"
         d="m 190.14286,825.85684 0,1 131,0 0,-1 -131,0 z"
         style="fill:#ffffff;fill-opacity:1;fill-rule:nonzero;stroke:none" />
    </g>
    <g
       transform="translate(-525.14285,-304.38884)"
       id="hover-topright"
       inkscape:label="#selected-topright-8">
      <path
         id="path4155-3"
         d="m 321.14285,825.85714 0,4 4,0 0,-1.46875 c 0,-1.40502 -1.11588,-2.53125 -2.53125,-2.53125 l -1.46875,0 z"
         style="opacity:0.3;fill:#ffffff;fill-opacity:0;fill-rule:nonzero;stroke:none"
         inkscape:connector-curvature="0"
         class="ColorScheme-ButtonFocus" />
      <path
         style="fill:#ffffff;fill-opacity:1;fill-rule:nonzero;stroke:none"
         d="m 322.6116,825.85684 c 1.40502,0 2.53125,1.11588 2.53125,2.53125 l 0,1.46875 -1,0 0,-1.09375 c 0,-1.06153 -0.85248,-1.90625 -1.90625,-1.90625 l -1.09375,0 0,-1 1.46875,0 z"
         id="path3135-4"
         inkscape:connector-curvature="0"
         class="ColorScheme-ButtonFocus" />
    </g>
    <g
       transform="matrix(1,0,0,3.0000017,-525.14285,-1964.1044)"
       id="hover-right"
       inkscape:label="#selected-right-5">
      <path
         style="opacity:0.3;fill:#1e92ff;fill-opacity:0;fill-rule:nonzero;stroke:none"
         d="m 325.14286,829.85712 0,16 -4,0 0,-16 4,0 z"
         id="path4167-1"
         inkscape:connector-curvature="0"
         class="ColorScheme-ButtonFocus" />
      <path
         class="ColorScheme-ButtonFocus"
         inkscape:connector-curvature="0"
         id="path3157"
         d="m 325.14285,829.85713 0,15.99999 -1,0 0,-15.99999 1,0 z"
         style="fill:#ffffff;fill-opacity:1;fill-rule:nonzero;stroke:none" />
    </g>
    <g
       transform="matrix(-1,0,0,-1,-13.85714,1403.3255)"
       id="hover-bottomright"
       inkscape:label="#hover-bottomright">
      <path
         class="ColorScheme-ButtonFocus"
         inkscape:connector-curvature="0"
         id="path3133-3"
         d="m 186.14285,829.8571 4,0 0,-4 -1.46875,0 c -1.40502,0 -2.53125,1.11588 -2.53125,2.53125 l 0,1.46875 z"
         style="opacity:0.3;fill:#1e92ff;fill-opacity:0;fill-rule:nonzero;stroke:none" />
      <path
         style="fill:#ffffff;fill-opacity:1;fill-rule:nonzero;stroke:none"
         d="M 43.53125,89.4375 C 42.12623,89.4375 41,90.55338 41,91.96875 l 0,1.46875 1,0 0,-1.09375 c 0,-1.06153 0.85248,-1.90625 1.90625,-1.90625 l 1.09375,0 0,-1 -1.46875,0 z"
         transform="translate(145.14285,736.40462)"
         id="path3135-6"
         inkscape:connector-curvature="0"
         class="ColorScheme-ButtonFocus" />
    </g>
    <g
       transform="matrix(-0.36657704,0,0,-1,-134.2764,1403.3257)"
       id="hover-bottom"
       inkscape:label="#hover-bottom">
      <path
         style="opacity:0.3;fill:#1e92ff;fill-opacity:0;fill-rule:nonzero;stroke:none"
         d="m 190.14286,825.85714 0,4 131,0 0,-4 -131,0 z"
         id="path4143-7-6"
         inkscape:connector-curvature="0"
         class="ColorScheme-ButtonFocus" />
      <path
         class="ColorScheme-ButtonFocus"
         inkscape:connector-curvature="0"
         id="path3131-8"
         d="m 190.14286,825.85684 0,1 131,0 0,-1 -131,0 z"
         style="fill:#ffffff;fill-opacity:1;fill-rule:nonzero;stroke:none" />
    </g>
    <g
       transform="matrix(-1,0,0,-1,69.14285,1403.3254)"
       id="hover-bottomleft"
       inkscape:label="#hover-bottomleft">
      <path
         id="path4155-3-03"
         d="m 321.14285,825.85714 0,4 4,0 0,-1.46875 c 0,-1.40502 -1.11588,-2.53125 -2.53125,-2.53125 l -1.46875,0 z"
         style="opacity:0.3;fill:#1e92ff;fill-opacity:0;fill-rule:nonzero;stroke:none"
         inkscape:connector-curvature="0"
         class="ColorScheme-ButtonFocus" />
      <path
         style="fill:#ffffff;fill-opacity:1;fill-rule:nonzero;stroke:none"
         d="m 322.6116,825.85684 c 1.40502,0 2.53125,1.11588 2.53125,2.53125 l 0,1.46875 -1,0 0,-1.09375 c 0,-1.06153 -0.85248,-1.90625 -1.90625,-1.90625 l -1.09375,0 0,-1 1.46875,0 z"
         id="path3135-4-1"
         inkscape:connector-curvature="0"
         class="ColorScheme-ButtonFocus" />
    </g>
    <path
       inkscape:connector-curvature="0"
       id="hover-center-3"
       d="m -133.48512,515.29619 v 48 h 48.000002 v -48 z"
       style="color:#1e92ff;opacity:0.3;fill:#1e92ff;fill-opacity:0;fill-rule:nonzero;stroke:none"
       class="ColorScheme-ButtonFocus"
       inkscape:label="#selected-center-5" />
    <g
       transform="matrix(1,0,0,3.0009825,-323.62797,-1975.1063)"
       id="selected+hover-left"
       inkscape:label="#selected-left-6">
      <path
         id="path4119-9-7"
         d="m 186.14285,829.85712 v 16 h 4 v -16 z"
         style="color:#1e92ff;opacity:0.3;fill:#1e92ff;fill-opacity:0;fill-rule:nonzero;stroke:none"
         inkscape:connector-curvature="0"
         class="ColorScheme-ButtonFocus" />
      <path
         class="ColorScheme-ButtonFocus"
         inkscape:connector-curvature="0"
         style="color:#1e92ff;fill:#ffffff;fill-opacity:1;fill-rule:nonzero;stroke:none"
         d="m 186.14285,829.85712 v 16 h 1 v -16 z"
         id="path3175-8" />
    </g>
    <g
       transform="translate(-323.62797,-314.56119)"
       id="selected+hover-topleft"
       inkscape:label="#selected-topleft-7">
      <path
         class="ColorScheme-ButtonFocus"
         inkscape:connector-curvature="0"
         id="path3133-8"
         d="m 186.14285,829.8571 h 4 v -4 h -1.46875 c -1.40502,0 -2.53125,1.11588 -2.53125,2.53125 z"
         style="color:#1e92ff;opacity:0.3;fill:#1e92ff;fill-opacity:0;fill-rule:nonzero;stroke:none" />
      <path
         style="color:#1e92ff;fill:#ffffff;fill-opacity:1;fill-rule:nonzero;stroke:none"
         d="M 43.53125,89.4375 C 42.12623,89.4375 41,90.55338 41,91.96875 v 1.46875 h 1 v -1.09375 c 0,-1.06153 0.85248,-1.90625 1.90625,-1.90625 H 45 v -1 z"
         transform="translate(145.14285,736.40462)"
         id="path3135-8"
         inkscape:connector-curvature="0"
         class="ColorScheme-ButtonFocus" />
    </g>
    <g
       transform="matrix(0.36657704,0,0,1,-203.19713,-314.56093)"
       id="selected+hover-top"
       inkscape:label="#selected-top-3">
      <path
         style="color:#1e92ff;opacity:0.3;fill:#1e92ff;fill-opacity:0;fill-rule:nonzero;stroke:none"
         d="m 190.14286,825.85714 v 4 h 131 v -4 z"
         id="path4143-7-3"
         inkscape:connector-curvature="0"
         class="ColorScheme-ButtonFocus" />
      <path
         class="ColorScheme-ButtonFocus"
         inkscape:connector-curvature="0"
         id="path3131-1"
         d="m 190.14286,825.85684 v 1 h 131 v -1 z"
         style="color:#1e92ff;fill:#ffffff;fill-opacity:1;fill-rule:nonzero;stroke:none" />
    </g>
    <g
       transform="translate(-406.62797,-314.56093)"
       id="selected+hover-topright"
       inkscape:label="#selected-topright-8">
      <path
         id="path4155-3-9"
         d="m 321.14285,825.85714 v 4 h 4 v -1.46875 c 0,-1.40502 -1.11588,-2.53125 -2.53125,-2.53125 z"
         style="color:#1e92ff;opacity:0.3;fill:#ffffff;fill-opacity:0;fill-rule:nonzero;stroke:none"
         inkscape:connector-curvature="0"
         class="ColorScheme-ButtonFocus" />
      <path
         style="color:#1e92ff;fill:#ffffff;fill-opacity:1;fill-rule:nonzero;stroke:none"
         d="m 322.6116,825.85684 c 1.40502,0 2.53125,1.11588 2.53125,2.53125 v 1.46875 h -1 v -1.09375 c 0,-1.06153 -0.85248,-1.90625 -1.90625,-1.90625 h -1.09375 v -1 z"
         id="path3135-4-2"
         inkscape:connector-curvature="0"
         class="ColorScheme-ButtonFocus" />
    </g>
    <g
       transform="matrix(1,0,0,3.0000017,-406.62797,-1974.2765)"
       id="selected+hover-right"
       inkscape:label="#selected-right-5">
      <path
         style="color:#1e92ff;opacity:0.3;fill:#1e92ff;fill-opacity:0;fill-rule:nonzero;stroke:none"
         d="m 325.14286,829.85712 v 16 h -4 v -16 z"
         id="path4167-1-6"
         inkscape:connector-curvature="0"
         class="ColorScheme-ButtonFocus" />
      <path
         class="ColorScheme-ButtonFocus"
         inkscape:connector-curvature="0"
         id="path3157-8"
         d="m 325.14285,829.85713 v 15.99999 h -1 v -15.99999 z"
         style="color:#1e92ff;fill:#ffffff;fill-opacity:1;fill-rule:nonzero;stroke:none" />
    </g>
    <g
       transform="rotate(180,52.328873,696.57671)"
       id="selected+hover-bottomright"
       inkscape:label="#hover-bottomright">
      <path
         class="ColorScheme-ButtonFocus"
         inkscape:connector-curvature="0"
         id="path3133-3-2"
         d="m 186.14285,829.8571 h 4 v -4 h -1.46875 c -1.40502,0 -2.53125,1.11588 -2.53125,2.53125 z"
         style="color:#1e92ff;opacity:0.3;fill:#1e92ff;fill-opacity:0;fill-rule:nonzero;stroke:none" />
      <path
         style="color:#1e92ff;fill:#ffffff;fill-opacity:1;fill-rule:nonzero;stroke:none"
         d="M 43.53125,89.4375 C 42.12623,89.4375 41,90.55338 41,91.96875 v 1.46875 h 1 v -1.09375 c 0,-1.06153 0.85248,-1.90625 1.90625,-1.90625 H 45 v -1 z"
         transform="translate(145.14285,736.40462)"
         id="path3135-6-6"
         inkscape:connector-curvature="0"
         class="ColorScheme-ButtonFocus" />
    </g>
    <g
       transform="matrix(-0.36657704,0,0,-1,-15.761514,1393.1536)"
       id="selected+hover-bottom"
       inkscape:label="#hover-bottom">
      <path
         style="color:#1e92ff;opacity:0.3;fill:#1e92ff;fill-opacity:0;fill-rule:nonzero;stroke:none"
         d="m 190.14286,825.85714 v 4 h 131 v -4 z"
         id="path4143-7-6-4"
         inkscape:connector-curvature="0"
         class="ColorScheme-ButtonFocus" />
      <path
         class="ColorScheme-ButtonFocus"
         inkscape:connector-curvature="0"
         id="path3131-8-9"
         d="m 190.14286,825.85684 v 1 h 131 v -1 z"
         style="color:#1e92ff;fill:#ffffff;fill-opacity:1;fill-rule:nonzero;stroke:none" />
    </g>
    <g
       transform="rotate(180,93.828868,696.57666)"
       id="selected+hover-bottomleft"
       inkscape:label="#hover-bottomleft">
      <path
         id="path4155-3-03-0"
         d="m 321.14285,825.85714 v 4 h 4 v -1.46875 c 0,-1.40502 -1.11588,-2.53125 -2.53125,-2.53125 z"
         style="color:#1e92ff;opacity:0.3;fill:#1e92ff;fill-opacity:0;fill-rule:nonzero;stroke:none"
         inkscape:connector-curvature="0"
         class="ColorScheme-ButtonFocus" />
      <path
         style="color:#1e92ff;fill:#ffffff;fill-opacity:1;fill-rule:nonzero;stroke:none"
         d="m 322.6116,825.85684 c 1.40502,0 2.53125,1.11588 2.53125,2.53125 v 1.46875 h -1 v -1.09375 c 0,-1.06153 -0.85248,-1.90625 -1.90625,-1.90625 h -1.09375 v -1 z"
         id="path3135-4-1-4"
         inkscape:connector-curvature="0"
         class="ColorScheme-ButtonFocus" />
    </g>
    <path
       inkscape:connector-curvature="0"
       id="hover-center-3-9"
       d="m -258.02306,447.45011 v 48 h 48 v -48 z"
       style="color:#1e92ff;opacity:0.3;fill:#1e92ff;fill-opacity:0;fill-rule:nonzero;stroke:none"
       class="ColorScheme-ButtonFocus"
       inkscape:label="#selected-center-5" />
    <g
       transform="matrix(1,0,0,3.0009825,-448.16591,-2042.9524)"
       id="selected-left"
       inkscape:label="#selected-left-6">
      <path
         id="path4119-9-7-7"
         d="m 186.14285,829.85712 v 16 h 4 v -16 z"
         style="color:#1e92ff;opacity:0.3;fill:#1e92ff;fill-opacity:0;fill-rule:nonzero;stroke:none"
         inkscape:connector-curvature="0"
         class="ColorScheme-ButtonFocus" />
      <path
         class="ColorScheme-ButtonFocus"
         inkscape:connector-curvature="0"
         style="color:#1e92ff;fill:#ffffff;fill-opacity:1;fill-rule:nonzero;stroke:none"
         d="m 186.14285,829.85712 v 16 h 1 v -16 z"
         id="path3175-8-6" />
    </g>
    <g
       transform="translate(-448.16591,-382.40727)"
       id="selected-topleft"
       inkscape:label="#selected-topleft-7">
      <path
         class="ColorScheme-ButtonFocus"
         inkscape:connector-curvature="0"
         id="path3133-8-3"
         d="m 186.14285,829.8571 h 4 v -4 h -1.46875 c -1.40502,0 -2.53125,1.11588 -2.53125,2.53125 z"
         style="color:#1e92ff;opacity:0.3;fill:#1e92ff;fill-opacity:0;fill-rule:nonzero;stroke:none" />
      <path
         style="color:#1e92ff;fill:#ffffff;fill-opacity:1;fill-rule:nonzero;stroke:none"
         d="M 43.53125,89.4375 C 42.12623,89.4375 41,90.55338 41,91.96875 v 1.46875 h 1 v -1.09375 c 0,-1.06153 0.85248,-1.90625 1.90625,-1.90625 H 45 v -1 z"
         transform="translate(145.14285,736.40462)"
         id="path3135-8-6"
         inkscape:connector-curvature="0"
         class="ColorScheme-ButtonFocus" />
    </g>
    <g
       transform="matrix(0.36657704,0,0,1,-327.73507,-382.40701)"
       id="selected-top"
       inkscape:label="#selected-top-3">
      <path
         style="color:#1e92ff;opacity:0.3;fill:#1e92ff;fill-opacity:0;fill-rule:nonzero;stroke:none"
         d="m 190.14286,825.85714 v 4 h 131 v -4 z"
         id="path4143-7-3-6"
         inkscape:connector-curvature="0"
         class="ColorScheme-ButtonFocus" />
      <path
         class="ColorScheme-ButtonFocus"
         inkscape:connector-curvature="0"
         id="path3131-1-3"
         d="m 190.14286,825.85684 v 1 h 131 v -1 z"
         style="color:#1e92ff;fill:#ffffff;fill-opacity:1;fill-rule:nonzero;stroke:none" />
    </g>
    <g
       transform="translate(-531.16591,-382.40701)"
       id="selected-topright"
       inkscape:label="#selected-topright-8">
      <path
         id="path4155-3-9-4"
         d="m 321.14285,825.85714 v 4 h 4 v -1.46875 c 0,-1.40502 -1.11588,-2.53125 -2.53125,-2.53125 z"
         style="color:#1e92ff;opacity:0.3;fill:#ffffff;fill-opacity:0;fill-rule:nonzero;stroke:none"
         inkscape:connector-curvature="0"
         class="ColorScheme-ButtonFocus" />
      <path
         style="color:#1e92ff;fill:#ffffff;fill-opacity:1;fill-rule:nonzero;stroke:none"
         d="m 322.6116,825.85684 c 1.40502,0 2.53125,1.11588 2.53125,2.53125 v 1.46875 h -1 v -1.09375 c 0,-1.06153 -0.85248,-1.90625 -1.90625,-1.90625 h -1.09375 v -1 z"
         id="path3135-4-2-8"
         inkscape:connector-curvature="0"
         class="ColorScheme-ButtonFocus" />
    </g>
    <g
       transform="matrix(1,0,0,3.0000017,-531.16591,-2042.1226)"
       id="selected-right"
       inkscape:label="#selected-right-5">
      <path
         style="color:#1e92ff;opacity:0.3;fill:#1e92ff;fill-opacity:0;fill-rule:nonzero;stroke:none"
         d="m 325.14286,829.85712 v 16 h -4 v -16 z"
         id="path4167-1-6-2"
         inkscape:connector-curvature="0"
         class="ColorScheme-ButtonFocus" />
      <path
         class="ColorScheme-ButtonFocus"
         inkscape:connector-curvature="0"
         id="path3157-8-9"
         d="m 325.14285,829.85713 v 15.99999 h -1 v -15.99999 z"
         style="color:#1e92ff;fill:#ffffff;fill-opacity:1;fill-rule:nonzero;stroke:none" />
    </g>
    <g
       transform="rotate(180,-9.940098,662.65367)"
       id="selected-bottomright"
       inkscape:label="#hover-bottomright">
      <path
         class="ColorScheme-ButtonFocus"
         inkscape:connector-curvature="0"
         id="path3133-3-2-9"
         d="m 186.14285,829.8571 h 4 v -4 h -1.46875 c -1.40502,0 -2.53125,1.11588 -2.53125,2.53125 z"
         style="color:#1e92ff;opacity:0.3;fill:#1e92ff;fill-opacity:0;fill-rule:nonzero;stroke:none" />
      <path
         style="color:#1e92ff;fill:#ffffff;fill-opacity:1;fill-rule:nonzero;stroke:none"
         d="M 43.53125,89.4375 C 42.12623,89.4375 41,90.55338 41,91.96875 v 1.46875 h 1 v -1.09375 c 0,-1.06153 0.85248,-1.90625 1.90625,-1.90625 H 45 v -1 z"
         transform="translate(145.14285,736.40462)"
         id="path3135-6-6-0"
         inkscape:connector-curvature="0"
         class="ColorScheme-ButtonFocus" />
    </g>
    <g
       transform="matrix(-0.36657704,0,0,-1,-140.29946,1325.3075)"
       id="selected-bottom"
       inkscape:label="#hover-bottom">
      <path
         style="color:#1e92ff;opacity:0.3;fill:#1e92ff;fill-opacity:0;fill-rule:nonzero;stroke:none"
         d="m 190.14286,825.85714 v 4 h 131 v -4 z"
         id="path4143-7-6-4-8"
         inkscape:connector-curvature="0"
         class="ColorScheme-ButtonFocus" />
      <path
         class="ColorScheme-ButtonFocus"
         inkscape:connector-curvature="0"
         id="path3131-8-9-5"
         d="m 190.14286,825.85684 v 1 h 131 v -1 z"
         style="color:#1e92ff;fill:#ffffff;fill-opacity:1;fill-rule:nonzero;stroke:none" />
    </g>
    <g
       transform="rotate(180,31.559898,662.65362)"
       id="selected-bottomleft"
       inkscape:label="#hover-bottomleft">
      <path
         id="path4155-3-03-0-9"
         d="m 321.14285,825.85714 v 4 h 4 v -1.46875 c 0,-1.40502 -1.11588,-2.53125 -2.53125,-2.53125 z"
         style="color:#1e92ff;opacity:0.3;fill:#1e92ff;fill-opacity:0;fill-rule:nonzero;stroke:none"
         inkscape:connector-curvature="0"
         class="ColorScheme-ButtonFocus" />
      <path
         style="color:#1e92ff;fill:#ffffff;fill-opacity:1;fill-rule:nonzero;stroke:none"
         d="m 322.6116,825.85684 c 1.40502,0 2.53125,1.11588 2.53125,2.53125 v 1.46875 h -1 v -1.09375 c 0,-1.06153 -0.85248,-1.90625 -1.90625,-1.90625 h -1.09375 v -1 z"
         id="path3135-4-1-4-6"
         inkscape:connector-curvature="0"
         class="ColorScheme-ButtonFocus" />
    </g>
  </g>
</svg>
