<svg width="90" height="90" viewBox="0 0 90 90" fill="none" xmlns="http://www.w3.org/2000/svg">
<circle cx="45" cy="45" r="45" fill="#465774"/>
<mask id="mask0" mask-type="alpha" maskUnits="userSpaceOnUse" x="0" y="0" width="90" height="90">
<circle cx="45" cy="45" r="45" fill="#465774"/>
</mask>
<g mask="url(#mask0)">
<rect width="90" height="45" transform="matrix(-1 0 0 1 90 0)" fill="black" fill-opacity="0.25"/>
<rect width="1" height="90" transform="matrix(-1 0 0 1 10 0)" fill="black" fill-opacity="0.25"/>
<rect width="1" height="90" transform="matrix(-1 0 0 1 20 0)" fill="black" fill-opacity="0.25"/>
<rect width="1" height="90" transform="matrix(-1 0 0 1 30 0)" fill="black" fill-opacity="0.25"/>
<rect width="1" height="90" transform="matrix(-1 0 0 1 40 0)" fill="black" fill-opacity="0.25"/>
<rect width="1" height="90" transform="matrix(-1 0 0 1 50 0)" fill="black" fill-opacity="0.25"/>
<rect width="1" height="90" transform="matrix(-1 0 0 1 60 0)" fill="black" fill-opacity="0.25"/>
<rect width="1" height="90" transform="matrix(-1 0 0 1 70 0)" fill="black" fill-opacity="0.25"/>
<rect width="1" height="90" transform="matrix(-1 0 0 1 80 0)" fill="black" fill-opacity="0.25"/>
<rect x="10" y="27" width="9" height="18" fill="#7B61FF"/>
<rect x="10" y="27" width="9" height="18" fill="url(#paint0_linear)" fill-opacity="0.2"/>
<rect x="30" y="13" width="9" height="32" fill="#7B61FF"/>
<rect x="30" y="13" width="9" height="32" fill="url(#paint1_linear)" fill-opacity="0.2"/>
<rect width="9" height="10" transform="matrix(1 0 0 -1 50 45)" fill="#7B61FF"/>
<rect width="9" height="10" transform="matrix(1 0 0 -1 50 45)" fill="url(#paint2_linear)" fill-opacity="0.2"/>
<rect width="9" height="16" transform="matrix(1 0 0 -1 60 61)" fill="#7B61FF"/>
<rect width="9" height="16" transform="matrix(1 0 0 -1 60 61)" fill="url(#paint3_linear)" fill-opacity="0.2"/>
<rect width="9" height="17" transform="matrix(1 0 0 -1 70 45)" fill="#7B61FF"/>
<rect width="9" height="17" transform="matrix(1 0 0 -1 70 45)" fill="url(#paint4_linear)" fill-opacity="0.2"/>
<rect x="80" y="45" width="10" height="5" fill="#7B61FF"/>
<rect x="80" y="45" width="10" height="5" fill="url(#paint5_linear)" fill-opacity="0.2"/>
<rect y="45" width="9" height="8" fill="#7B61FF"/>
<rect y="45" width="9" height="8" fill="url(#paint6_linear)" fill-opacity="0.2"/>
<rect x="20" y="45" width="9" height="30" fill="#7B61FF"/>
<rect x="20" y="45" width="9" height="30" fill="url(#paint7_linear)" fill-opacity="0.2"/>
<rect x="40" y="45" width="9" height="32" fill="#7B61FF"/>
<rect x="40" y="45" width="9" height="32" fill="url(#paint8_linear)" fill-opacity="0.2"/>
<rect width="88" height="30" transform="matrix(1 0 0 -1 1 30)" fill="url(#paint9_linear)"/>
<rect x="1" y="60" width="88" height="30" fill="url(#paint10_linear)"/>
</g>
<mask id="mask1" mask-type="alpha" maskUnits="userSpaceOnUse" x="0" y="0" width="90" height="90">
<circle cx="45" cy="45" r="45" fill="#C4C4C4"/>
</mask>
<g mask="url(#mask1)">
<g filter="url(#filter0_f)">
<circle cx="45" cy="45" r="42" stroke="#7B61FF" stroke-opacity="0.48" stroke-width="6"/>
</g>
<circle cx="45" cy="45" r="44" stroke="#8296B9" stroke-width="2"/>
</g>
<defs>
<filter id="filter0_f" x="-14" y="-14" width="118" height="118" filterUnits="userSpaceOnUse" color-interpolation-filters="sRGB">
<feFlood flood-opacity="0" result="BackgroundImageFix"/>
<feBlend mode="normal" in="SourceGraphic" in2="BackgroundImageFix" result="shape"/>
<feGaussianBlur stdDeviation="7" result="effect1_foregroundBlur"/>
</filter>
<linearGradient id="paint0_linear" x1="14.5" y1="27" x2="14.5" y2="36" gradientUnits="userSpaceOnUse">
<stop stop-color="#5EC5FF"/>
<stop offset="1" stop-color="#5EC5FF" stop-opacity="0"/>
</linearGradient>
<linearGradient id="paint1_linear" x1="34.5" y1="13" x2="34.5" y2="29" gradientUnits="userSpaceOnUse">
<stop stop-color="#5EC5FF"/>
<stop offset="1" stop-color="#5EC5FF" stop-opacity="0"/>
</linearGradient>
<linearGradient id="paint2_linear" x1="4.5" y1="10" x2="4.5" y2="5" gradientUnits="userSpaceOnUse">
<stop stop-color="#5EC5FF"/>
<stop offset="1" stop-color="#5EC5FF" stop-opacity="0"/>
</linearGradient>
<linearGradient id="paint3_linear" x1="4.5" y1="0" x2="4.5" y2="8" gradientUnits="userSpaceOnUse">
<stop stop-color="#5EC5FF"/>
<stop offset="1" stop-color="#5EC5FF" stop-opacity="0"/>
</linearGradient>
<linearGradient id="paint4_linear" x1="4.5" y1="17" x2="4.5" y2="8.5" gradientUnits="userSpaceOnUse">
<stop stop-color="#5EC5FF"/>
<stop offset="1" stop-color="#5EC5FF" stop-opacity="0"/>
</linearGradient>
<linearGradient id="paint5_linear" x1="85" y1="50" x2="85" y2="47.5" gradientUnits="userSpaceOnUse">
<stop stop-color="#5EC5FF"/>
<stop offset="1" stop-color="#5EC5FF" stop-opacity="0"/>
</linearGradient>
<linearGradient id="paint6_linear" x1="4.5" y1="53" x2="4.5" y2="49" gradientUnits="userSpaceOnUse">
<stop stop-color="#5EC5FF"/>
<stop offset="1" stop-color="#5EC5FF" stop-opacity="0"/>
</linearGradient>
<linearGradient id="paint7_linear" x1="24.5" y1="75" x2="24.5" y2="60" gradientUnits="userSpaceOnUse">
<stop stop-color="#5EC5FF"/>
<stop offset="1" stop-color="#5EC5FF" stop-opacity="0"/>
</linearGradient>
<linearGradient id="paint8_linear" x1="44.5" y1="77" x2="44.5" y2="61" gradientUnits="userSpaceOnUse">
<stop stop-color="#5EC5FF"/>
<stop offset="1" stop-color="#5EC5FF" stop-opacity="0"/>
</linearGradient>
<linearGradient id="paint9_linear" x1="44" y1="0" x2="44" y2="30" gradientUnits="userSpaceOnUse">
<stop stop-color="#7B61FF" stop-opacity="0"/>
<stop offset="1" stop-color="#7B61FF" stop-opacity="0.5"/>
</linearGradient>
<linearGradient id="paint10_linear" x1="45" y1="60" x2="45" y2="90" gradientUnits="userSpaceOnUse">
<stop stop-color="#7B61FF" stop-opacity="0"/>
<stop offset="1" stop-color="#7B61FF" stop-opacity="0.5"/>
</linearGradient>
</defs>
</svg>
