<?xml version="1.0" encoding="UTF-8" standalone="no"?>
<svg
   xmlns:dc="http://purl.org/dc/elements/1.1/"
   xmlns:cc="http://creativecommons.org/ns#"
   xmlns:rdf="http://www.w3.org/1999/02/22-rdf-syntax-ns#"
   xmlns:svg="http://www.w3.org/2000/svg"
   xmlns="http://www.w3.org/2000/svg"
   xmlns:sodipodi="http://sodipodi.sourceforge.net/DTD/sodipodi-0.dtd"
   xmlns:inkscape="http://www.inkscape.org/namespaces/inkscape"
   width="90"
   height="90"
   viewBox="0 0 90 90"
   fill="none"
   version="1.1"
   id="svg57"
   sodipodi:docname="sketchpad-svg.svg"
   inkscape:version="0.92.4 (5da689c313, 2019-01-14)">
  <metadata
     id="metadata61">
    <rdf:RDF>
      <cc:Work
         rdf:about="">
        <dc:format>image/svg+xml</dc:format>
        <dc:type
           rdf:resource="http://purl.org/dc/dcmitype/StillImage" />
      </cc:Work>
    </rdf:RDF>
  </metadata>
  <sodipodi:namedview
     pagecolor="#ffffff"
     bordercolor="#666666"
     borderopacity="1"
     objecttolerance="10"
     gridtolerance="10"
     guidetolerance="10"
     inkscape:pageopacity="0"
     inkscape:pageshadow="2"
     inkscape:window-width="1920"
     inkscape:window-height="1027"
     id="namedview59"
     showgrid="false"
     inkscape:zoom="3.7083822"
     inkscape:cx="13.43221"
     inkscape:cy="6.5573068"
     inkscape:window-x="-8"
     inkscape:window-y="-8"
     inkscape:window-maximized="1"
     inkscape:current-layer="svg57" />
  <circle
     cx="45"
     cy="45"
     r="45"
     fill="#465774"
     id="circle2" />
  <path
     d="M0 45C0 69.8528 20.1472 90 45 90C69.8528 90 90 69.8528 90 45H0Z"
     fill="url(#paint0_linear)"
     id="path4" />
  <path
     d="M0 45C0 20.1472 20.1472 0 45 0C69.8528 0 90 20.1472 90 45H0Z"
     fill="url(#paint1_linear)"
     id="path6" />
  <path
     d="M54.9999 29L37.9999 35V51.2877C37.0487 50.8851 35.8588 50.7971 34.6567 51.1192C32.2561 51.7625 30.7156 53.7975 31.2159 55.6647C31.7162 57.5318 34.0678 58.524 36.4684 57.8807C38.6233 57.3033 40.0852 55.6044 39.9999 53.9121V39.2941L52.9999 34.7059V46.2877C52.0487 45.8851 50.8588 45.7971 49.6567 46.1192C47.2561 46.7625 45.7156 48.7975 46.2159 50.6647C46.7162 52.5318 49.0678 53.524 51.4684 52.8807C53.6233 52.3033 55.0852 50.6044 54.9999 48.9121L54.9999 29Z"
     fill="url(#paint2_linear)"
     id="path8" />
  <path
     style="fill:url(#paint3_linear)"
     d="M 54 21 L 54 24 L 65 24 C 68.866 24 72 27.134 72 31 L 72 59 C 72 62.866 68.866 66 65 66 L 54 66 L 54 61.871094 L 45 67.5 L 54 73.128906 L 54 69 L 65 69 C 70.5228 69 75 64.5228 75 59 L 75 31 C 75 25.4772 70.5228 21 65 21 L 54 21 z "
     id="path10" />
  <path
     style="fill:url(#paint5_linear)"
     d="M 36 16.871094 L 36 21 L 25 21 C 19.4772 21 15 25.4772 15 31 L 15 59 C 15 64.5228 19.4772 69 25 69 L 36 69 L 36 66 L 25 66 C 21.134 66 18 62.866 18 59 L 18 31 C 18 27.134 21.134 24 25 24 L 36 24 L 36 28.128906 L 45 22.5 L 36 16.871094 z "
     id="path14" />
  <circle
     cx="45"
     cy="45"
     r="44"
     stroke="#8296B9"
     stroke-width="2"
     id="circle18" />
  <defs
     id="defs55">
    <linearGradient
       id="paint0_linear"
       x1="45"
       y1="45"
       x2="45"
       y2="90"
       gradientUnits="userSpaceOnUse">
      <stop
         stop-color="#343E51"
         stop-opacity="0"
         id="stop20" />
      <stop
         offset="1"
         stop-color="#00A3FF"
         stop-opacity="0.3"
         id="stop22" />
    </linearGradient>
    <linearGradient
       id="paint1_linear"
       x1="45"
       y1="45"
       x2="45"
       y2="0"
       gradientUnits="userSpaceOnUse">
      <stop
         stop-color="#343E51"
         stop-opacity="0"
         id="stop25" />
      <stop
         offset="1"
         stop-color="#D4A4FF"
         stop-opacity="0.3"
         id="stop27" />
    </linearGradient>
    <linearGradient
       id="paint2_linear"
       x1="31"
       y1="44.5"
       x2="62"
       y2="44.5"
       gradientUnits="userSpaceOnUse">
      <stop
         stop-color="#D4A4FF"
         id="stop30" />
      <stop
         offset="1"
         stop-color="#5DC5FF"
         id="stop32" />
    </linearGradient>
    <linearGradient
       id="paint3_linear"
       x1="45"
       y1="6.90843"
       x2="45"
       y2="83.0916"
       gradientUnits="userSpaceOnUse">
      <stop
         stop-color="#00A3FF"
         id="stop35" />
      <stop
         offset="0.999858"
         stop-color="#5EC5FF"
         id="stop37" />
    </linearGradient>
    <linearGradient
       id="paint4_linear"
       x1="45"
       y1="6.90843"
       x2="45"
       y2="83.0916"
       gradientUnits="userSpaceOnUse">
      <stop
         stop-color="#00A3FF"
         id="stop40" />
      <stop
         offset="0.999858"
         stop-color="#5EC5FF"
         id="stop42" />
    </linearGradient>
    <linearGradient
       id="paint5_linear"
       x1="45"
       y1="6.90843"
       x2="45"
       y2="83.0916"
       gradientUnits="userSpaceOnUse">
      <stop
         stop-color="#D9A8FF"
         id="stop45" />
      <stop
         offset="1"
         stop-color="#7B61FF"
         id="stop47" />
    </linearGradient>
    <linearGradient
       id="paint6_linear"
       x1="45"
       y1="6.90843"
       x2="45"
       y2="83.0916"
       gradientUnits="userSpaceOnUse">
      <stop
         stop-color="#D9A8FF"
         id="stop50" />
      <stop
         offset="1"
         stop-color="#7B61FF"
         id="stop52" />
    </linearGradient>
  </defs>
</svg>
