<?xml version="1.0" encoding="UTF-8" standalone="no"?>
<svg
   xmlns:dc="http://purl.org/dc/elements/1.1/"
   xmlns:cc="http://creativecommons.org/ns#"
   xmlns:rdf="http://www.w3.org/1999/02/22-rdf-syntax-ns#"
   xmlns:svg="http://www.w3.org/2000/svg"
   xmlns="http://www.w3.org/2000/svg"
   xmlns:xlink="http://www.w3.org/1999/xlink"
   width="90"
   height="90"
   viewBox="0 0 90 90"
   fill="none"
   version="1.1"
   id="svg36">
  <metadata
     id="metadata40">
    <rdf:RDF>
      <cc:Work
         rdf:about="">
        <dc:format>image/svg+xml</dc:format>
        <dc:type
           rdf:resource="http://purl.org/dc/dcmitype/StillImage" />
        <dc:title></dc:title>
      </cc:Work>
    </rdf:RDF>
  </metadata>
  <circle
     cx="45"
     cy="45"
     r="45"
     fill="#465774"
     id="circle2"
     style="fill:#6b9d3c;fill-opacity:1" />
  <g
     id="g1035"
     transform="translate(169.55059)">
    <path
       id="rect892"
       style="fill:#fffdea;fill-opacity:1;stroke:#ff0000;stroke-width:1;stroke-linecap:square;stroke-linejoin:round;stroke-opacity:0"
       d="m -124.60156,0 a 45,45 0 0 0 -44.82617,45 45,45 0 0 0 45,45 45,45 0 0 0 44.999996,-45 45,45 0 0 0 -44.999996,-45 45,45 0 0 0 -0.17383,0 z" />
    <path
       id="path879"
       style="fill:#d0d0d0;fill-opacity:1;stroke-width:1"
       d="m -124.11523,0.28125 a 45,45 0 0 0 -16.89454,3.3613281 V 30.287109 63.392578 h 1.67383 1.67188 v 14.38086 10.363281 a 45,45 0 0 0 13.72265,2.144531 45,45 0 0 0 4.33399,-0.210938 V 44.666016 0.49023438 a 45,45 0 0 0 -4.33399,-0.20898438 45,45 0 0 0 -0.17382,0 z m 12.53125,1.7304688 -0.15235,27.6699222 c -0.0989,17.876277 -0.0231,32.75568 0.16797,33.064453 0.19103,0.308774 1.84754,0.655901 3.67969,0.771484 l 3.33008,0.208984 -0.0898,14.212891 -0.0488,8.017578 a 45,45 0 0 0 18.433598,-16.072265 l 0.01563,-6.158204 2.208985,-0.333984 c 0.654641,-0.09914 1.107945,-0.204334 1.460937,-0.390625 a 45,45 0 0 0 1.554687,-4.195312 c 0.402575,-3.419823 0.482595,-12.151357 0.246094,-26.244141 A 45,45 0 0 0 -111.58398,2.0117188 Z m -37.20313,5.75 a 45,45 0 0 0 -20.1543,37.5195312 45,45 0 0 0 16.02539,34.429688 l 0.0215,-1.742188 0.18164,-14.181641 1.67187,-0.394531 c 1.33796,-0.31489 1.79638,-0.988223 2.29297,-3.373047 0.79828,-3.833631 0.86649,-28.124425 0.13477,-47.625 z" />
    <path
       id="path877"
       style="fill:#bade91;fill-opacity:1;stroke-width:1"
       d="m -124.60156,0 a 45,45 0 0 0 -16.40821,3.1679688 v 27.0996092 33.125 h 1.67383 1.67188 v 14.38086 10.234374 A 45,45 0 0 0 -124.42773,90 a 45,45 0 0 0 4.85546,-0.263672 l -0.0664,-37.880859 c -0.0387,-22.163078 -0.24235,-43.5688943 -0.45313,-47.5683596 -0.0953,-1.8076844 -0.17266,-3.1257083 -0.25,-4.0996094 a 45,45 0 0 0 -1.57226,-0.1171875 c -0.18418,0.33520677 -0.25705,0.35673276 -0.2461,-0.01367188 A 45,45 0 0 0 -124.42773,0 a 45,45 0 0 0 -0.17383,0 z m 13.02148,1.8730469 V 30.287109 63.392578 h 3.67774 3.67773 v 14.38086 7.435546 a 45,45 0 0 0 17.390626,-15.476562 v -6.257813 l 2.445312,-0.208984 c 0.468492,-0.03977 0.838579,-0.09117 1.158203,-0.160156 A 45,45 0 0 0 -81.421875,58.25 c 0.170405,-4.325721 0.224209,-13.128344 0.175781,-25.912109 A 45,45 0 0 0 -111.58008,1.8730469 Z m -37.74609,5.6445312 A 45,45 0 0 0 -169.42773,45 a 45,45 0 0 0 16.38085,34.726562 v -1.953124 -14.38086 h 1.60352 c 1.45534,0 1.67521,-0.415967 2.39453,-4.513672 0.74241,-4.229274 0.56033,-32.747136 -0.27734,-51.3613279 z" />
    <path
       id="path875"
       style="fill:#9fde52;fill-opacity:1;stroke-width:1"
       d="M -127.25391,0.08984375 A 45,45 0 0 0 -141.00977,3.1679688 V 30.261719 63.392578 h 1.67383 1.67188 v 14.38086 10.234374 A 45,45 0 0 0 -124.42773,90 a 45,45 0 0 0 4.14648,-0.191406 l -0.13281,-45.310547 c -0.0765,-26.209449 -0.3026,-43.2889309 -0.50196,-37.9550782 -0.30478,8.1545862 -0.4504,9.1654422 -0.91601,6.3535152 -0.64926,-3.9210459 -2.17499,-6.6034308 -3.47266,-6.1054684 C -125.9709,7.046666 -126.33954,6.2811748 -126.64648,4 c -0.23156,-1.7209315 -0.38563,-2.9793792 -0.60743,-3.91015625 z m 15.67383,1.78320315 V 30.287109 63.392578 h 3.67774 3.67773 v 14.40625 7.410156 a 45,45 0 0 0 17.390626,-15.476562 v -6.339844 h 2.25 c 0.531916,0 0.936118,-0.0084 1.253906,-0.0625 a 45,45 0 0 0 1.476562,-3.759766 c 0.238215,-3.307825 0.358746,-15.524827 0.359375,-28.054687 A 45,45 0 0 0 -111.58008,1.8730469 Z m -37.96094,5.7871093 a 45,45 0 0 0 -11.04882,10.5605468 c -0.0859,4.136868 -0.22282,4.242039 -0.49805,1.029297 -0.009,-0.101864 -0.0238,-0.19573 -0.0332,-0.296875 A 45,45 0 0 0 -169.42773,45 a 45,45 0 0 0 16.38085,34.726562 v -1.953124 -14.38086 h 1.58594 c 1.39528,0 1.63814,-0.396305 2.02344,-3.300781 0.41447,-3.124485 0.35425,-31.561877 -0.10352,-52.4316408 z M -89.234375,64.1875 c 0.07318,0.02358 0.171414,0.07061 0.291016,0.144531 0.424688,0.262472 0.771484,0.611222 0.771484,0.773438 0,0.557891 -0.589912,0.292468 -1.066406,-0.478516 -0.221754,-0.358806 -0.215619,-0.510208 0.0039,-0.439453 z" />
    <path
       id="path873"
       style="fill:#8bda28;fill-opacity:1;stroke-width:1"
       d="m -129.14062,0.24804688 a 45,45 0 0 0 -11.84961,2.91210932 l 0.14257,26.9589848 0.17383,32.939453 1.50391,0.21289 1.50586,0.214844 V 77.8125 88.007812 A 45,45 0 0 0 -124.42773,90 a 45,45 0 0 0 1.625,-0.03125 c 0.4239,-5.522063 0.23325,-32.990599 -0.32618,-33.736328 -0.33285,-0.4437 -0.38112,-1.168481 -0.10742,-1.611328 0.59793,-0.967557 0.52159,-29.666823 -0.0898,-33.744141 -0.3114,-2.076541 -0.68885,-2.76932 -1.36524,-2.509765 -0.51392,0.197213 -0.93554,0.214697 -0.93554,0.03906 0,-1.770472 -2.89441,-16.3530028 -3.33399,-16.796875 -0.22547,-0.2276847 -0.27511,-0.75815512 -0.17968,-1.36132812 z m 17.56054,1.62500002 V 30.287109 63.392578 h 3.67774 3.67773 v 14.472656 7.34375 a 45,45 0 0 0 14.447266,-11.498046 c -0.05224,-1.062729 -0.10987,-2.02153 -0.169922,-2.792969 -0.3561,-4.574472 -0.62361,-5.517578 -1.564453,-5.517578 -1.319689,0 -3.563292,-2.239439 -2.904297,-2.898438 0.246039,-0.246036 0.06189,-0.447265 -0.408203,-0.447265 -0.626403,-10e-7 -0.725716,-0.66971 -0.376953,-2.507813 0.261743,-1.379445 0.434656,-10.032218 0.384766,-19.228516 -0.08976,-16.539014 -0.116653,-16.840109 -2.494141,-27.755859 -0.367539,-1.687479 -0.614658,-2.8404883 -0.892578,-4.1308594 A 45,45 0 0 0 -111.58008,1.8730469 Z m -38.27734,6.0039062 A 45,45 0 0 0 -160.4043,17.970703 V 30.621094 64.0625 h 3.34375 3.34375 l 0.1543,14.210938 0.0117,1.03125 a 45,45 0 0 0 0.31445,0.263671 l 0.0215,-1.628906 0.19336,-14.546875 h 1.6582 1.66016 l -0.01,-33.273437 c -0.003,-9.650092 -0.0564,-16.862403 -0.14453,-22.2421879 z M -92.914062,12.875 -93.009766,30.621094 -93.1875,64.0625 h 2.507812 2.507813 v 7.591797 a 45,45 0 0 0 1.337891,-1.921875 v -6.339844 h 2.277343 1.197266 a 45,45 0 0 0 1.330078,-3.314453 l 0.240235,-3.201172 c 0.268662,-3.583375 0.300539,-14.642942 0.07031,-24.578125 -0.01183,-0.510429 -0.01964,-1.048471 -0.03125,-1.568359 A 45,45 0 0 0 -92.914062,12.875 Z m -27.599608,2.371094 c -0.0661,-1.288919 -0.11328,9.693863 -0.11328,29.419922 0,26.301412 0.0822,37.060862 0.18359,23.910156 0.1014,-13.150705 0.1014,-34.669607 0,-47.820313 -0.0253,-3.287676 -0.0483,-5.080126 -0.0703,-5.509765 z m -43.47656,8.3125 A 45,45 0 0 0 -169.42773,45 a 45,45 0 0 0 13.84375,32.46875 c -0.0127,-1.062733 -0.0235,-1.46878 -0.0352,-2.539062 l -0.10352,-9.529297 h -2.25976 c -1.24244,0 -2.64228,-0.464121 -3.11133,-1.029297 -0.63256,-0.76218 -0.91749,-5.869859 -1.10156,-19.777344 -0.21389,-16.15981 -0.40229,-18.986254 -1.3711,-20.464844 -0.15023,-0.22928 -0.29017,-0.410085 -0.42382,-0.570312 z m -3.52735,9.96875 c 0.0608,0.0092 0.13283,0.112422 0.21289,0.3125 0.1932,0.482806 0.16951,1.059006 -0.0527,1.28125 -0.22224,0.222243 -0.38056,-0.171903 -0.35156,-0.876953 0.02,-0.486962 0.09,-0.732147 0.1914,-0.716797 z m 38.28711,28.757812 c 0.0799,0.01344 0.1678,0.04863 0.25977,0.105469 0.36785,0.227345 0.66992,0.544814 0.66992,0.707031 0,0.162216 -0.30207,0.294922 -0.66992,0.294922 -0.36785,0 -0.66797,-0.31747 -0.66797,-0.707031 0,-0.292169 0.16837,-0.440712 0.4082,-0.400391 z m -2.67773,1.777344 c 1.3705,0 2.26598,0.226064 1.99023,0.501953 -0.67512,0.675441 -3.74002,0.698393 -4.15234,0.03125 -0.18128,-0.293318 0.79161,-0.533203 2.16211,-0.533203 z" />
    <path
       id="path871"
       style="fill:#6cb30f;fill-opacity:1;stroke-width:1"
       d="M -130.30859,0.38671875 A 45,45 0 0 0 -140.9668,3.1503906 l -0.0293,26.7539064 -0.0352,32.724609 1.51563,0.214844 1.51562,0.214844 0.18164,14.546875 L -137.68945,88 a 45,45 0 0 0 4.01562,1.039062 l -0.35351,-9.761718 c -0.25682,-7.081149 -0.73942,-13.401181 -1.07227,-14.044922 -0.52785,-1.020869 -0.26275,-1.169922 2.08008,-1.169922 2.29057,0 2.74603,-0.241545 3.0957,-1.634766 0.24963,-0.99462 0.97568,-1.712797 1.85352,-1.83789 2.76727,-0.394342 3.80882,-4.020515 3.42187,-11.900391 -1.25213,-25.49847 -2.62425,-38.8027342 -4.0039,-38.8027342 -0.88781,0 -1.65625,-4.3848156 -1.65625,-9.4570313 z m 18.92773,1.54687505 c -0.10062,5.3879717 -0.12664,16.8343762 -0.0508,29.6914062 l 0.18555,31.433594 2.33984,0.07031 c 5.1535,0.15371 4.68164,-1.321672 4.68164,14.644532 v 7.435546 a 45,45 0 0 0 3.44141,-1.921875 c -0.32599,-7.582945 -1.08268,-17.798909 -1.54297,-18.353515 -0.5419,-0.65295 -0.46336,-0.871094 0.31445,-0.871094 0.57124,0 1.1344,-0.678193 1.25195,-1.505859 0.13771,-0.969657 0.75217,-1.580414 1.726567,-1.71875 C -95.29181,60.306729 -94.932133,56.26483 -96.515625,32.5 -97.553058,16.930301 -98.609117,9.1679319 -99.792969,8.4101562 -99.95452,8.3067481 -100.11625,7.7570361 -100.26758,7.0332031 a 45,45 0 0 0 -11.11328,-5.0996093 z m -38.69141,6.0898437 A 45,45 0 0 0 -160.37891,17.9375 l -0.0137,12.683594 -0.0351,33.441406 h 3.35546 3.35547 l 0.14844,14.210938 0.01,1.02539 a 45,45 0 0 0 0.44726,0.373047 l 0.0449,-1.898437 c 0.34056,-14.149806 0.40507,-14.714108 1.69141,-14.714844 1.31891,-7.81e-4 1.33838,-0.466022 1.39258,-33.107422 0.015,-9.020693 -0.0211,-16.716361 -0.0899,-21.9277345 z m 57.218754,4.9121095 V 30.621094 64.0625 h 2.339844 2.341797 v 7.591797 a 45,45 0 0 0 1.376953,-1.982422 c 0.126142,-6.985542 0.701339,-6.947266 3.359375,-6.947266 0.15524,0 0.292141,-0.01539 0.412109,-0.101562 a 45,45 0 0 0 0.002,0 45,45 0 0 0 0.423828,-1.035156 c 0.425484,-2.350606 0.445312,-9.559776 0.445312,-31.636719 V 29.580078 A 45,45 0 0 0 -92.853516,12.935547 Z m -27.660154,2.310547 c -0.0661,-1.288919 -0.11328,9.693863 -0.11328,29.419922 0,26.301412 0.0822,37.060862 0.18359,23.910156 0.1014,-13.150705 0.1014,-34.669607 0,-47.820313 -0.0253,-3.287676 -0.0483,-5.080126 -0.0703,-5.509765 z M -168.68164,36.84375 A 45,45 0 0 0 -169.42773,45 a 45,45 0 0 0 1.23632,10.46875 c -0.21038,-5.742354 -0.36147,-12.004341 -0.49023,-18.625 z" />
    <path
       id="path869"
       style="fill:#5d8e15;fill-opacity:1;stroke-width:1"
       d="m -130.49609,0.41210938 a 45,45 0 0 0 -0.35547,0.0488281 c -0.0414,0.46579735 -0.0711,0.76899242 -0.125,1.40039062 l -0.42774,5.015625 -0.12109,-4.8476562 c -0.0146,-0.5861013 -0.0415,-0.9938365 -0.0645,-1.45507817 a 45,45 0 0 0 -5.49219,1.24414067 c -0.54509,0.4261877 -1.04906,0.7572152 -1.41797,0.8964844 -0.49565,0.1871179 -0.79361,0.1895138 -0.97656,-0.1230469 a 45,45 0 0 0 -1.00782,0.3730469 c -0.23879,4.3674618 -0.43892,17.0619262 -0.46679,30.8320312 l -0.0586,28.927734 h 1.60157 c 0.88028,0 1.78258,0.476731 2.00586,1.058594 0.22328,0.581864 0.40625,7.20201 0.40625,14.712891 0,4.684617 0.007,7.708829 0.0723,9.732422 a 45,45 0 0 0 2.59375,0.667968 c 3.4e-4,-0.100172 0.006,-0.149465 0.006,-0.255859 -0.002,-1.931222 -0.22136,-6.06857 -0.48633,-9.195313 -0.41457,-4.892034 -0.54068,-5.311903 -0.90429,-3.009765 -0.26892,1.702552 -0.45718,-0.06119 -0.51758,-4.849609 l -0.0937,-7.523438 h 2.96484 c 2.73765,0 2.98039,-0.141767 3.17578,-1.839844 0.1487,-1.292341 0.64284,-1.899999 1.66016,-2.044922 0.97586,-0.139016 1.79668,-1.079137 2.51758,-2.880859 0.94123,-2.352361 0.98447,-4.172721 0.35742,-15.175781 -0.3919,-6.876926 -0.99588,-15.060759 -1.3418,-18.1875 -0.34592,-3.126742 -0.65424,-6.287734 -0.68554,-7.023438 -0.0313,-0.735704 -0.42803,-0.133517 -0.88086,1.337891 l -0.82422,2.675781 -0.45703,-4.683594 c -0.25199,-2.574964 -0.51509,-7.990738 -0.58399,-12.037109 -0.0284,-1.6682403 -0.0499,-2.8564059 -0.0723,-3.79101564 z m 19.97851,1.79101562 c -0.93633,1.4740151 -1.0625,5.2489885 -1.0625,31.035156 v 29.416016 l 3.50977,0.203125 3.51172,0.201172 0.17968,14.546875 c 0.0406,3.280469 0.0761,5.653086 0.11914,7.621093 a 45,45 0 0 0 2.46289,-1.332031 c -0.23433,-4.502259 -0.61129,-10.775587 -0.83984,-13.980469 -0.36569,-5.127902 -0.28264,-5.851562 0.66992,-5.851562 0.70566,0 1.08789,-0.570838 1.08789,-1.626953 0,-1.042544 0.48191,-1.781151 1.343754,-2.054688 2.09643,-0.665383 3.338731,-3.829308 3.332031,-8.492187 -0.0072,-5.215248 -1.858936,-32.408761 -2.349609,-34.503906 -0.197362,-0.842711 -0.613704,-1.37526 -0.923828,-1.183594 -0.776248,0.479747 -1.274738,-3.068303 -1.374998,-9.5312501 a 45,45 0 0 0 -9.66602,-4.4667969 z m -39.60156,5.8535156 a 45,45 0 0 0 -0.45703,0.3203125 c -0.14942,1.7229529 -0.22757,1.6309229 -0.35938,0.2597657 a 45,45 0 0 0 -9.19726,8.9746092 c -0.10349,5.916177 -0.17891,12.514314 -0.19727,19.195313 l -0.0742,27.255859 h 3.34375 3.34375 l 0.14844,14.210938 0.01,1.02539 a 45,45 0 0 0 0.44726,0.373047 l 0.0449,-1.898437 c 0.35207,-14.627846 0.3614,-14.715265 1.85743,-14.927735 l 1.50586,-0.214844 -0.12305,-31.220703 c -0.0434,-11.051239 -0.15851,-19.296832 -0.29297,-23.3535154 z m 57.517578,5.1308594 -0.0918,17.599609 -0.173829,33.275391 h 2.347657 2.347656 v 7.591797 a 45,45 0 0 0 1.59375,-2.316406 l 0.07813,-6.279297 2.173828,-0.208985 1.257813,-0.123047 a 45,45 0 0 0 0.916015,-2.302734 V 29.880859 29.580078 A 45,45 0 0 0 -92.601562,13.1875 Z m -27.912108,2.058594 c -0.0661,-1.288919 -0.11328,9.693863 -0.11328,29.419922 0,26.301412 0.0822,37.060862 0.18359,23.910156 0.1014,-13.150705 0.1014,-34.669607 0,-47.820313 -0.0253,-3.287676 -0.0483,-5.080126 -0.0703,-5.509765 z m -48.61133,24.5625 A 45,45 0 0 0 -169.42773,45 a 45,45 0 0 0 0.38671,5.884766 c -0.0322,-3.256794 -0.0639,-6.585246 -0.0801,-10.394532 -0.001,-0.233034 -0.003,-0.448867 -0.004,-0.68164 z" />
    <path
       id="path867"
       style="fill:#494949;fill-opacity:1;stroke-width:1"
       d="m -139.83789,4.203125 -0.53711,3.0097656 c -0.29454,1.6553336 -0.55668,14.8010894 -0.58398,29.2148434 l -0.0508,26.207032 1.83985,0.21289 1.83984,0.210938 0.32617,14.714844 0.23438,10.5 a 45,45 0 0 0 0.14844,0.04102 l 0.13281,-10.041015 0.1875,-14.210938 h 2.94336 2.94336 l 0.2207,-5.183594 c 0.12102,-2.850852 0.0649,-17.975669 -0.125,-33.609375 -0.18986,-15.6337061 -0.47396,-24.51059023 -0.63086,-19.7285154 -0.18365,5.5972594 -0.37058,7.2046614 -0.52344,4.5136724 -0.17609,-3.0997486 -0.48675,-4.179688 -1.20703,-4.179688 -0.53422,0 -0.97265,0.3001169 -0.97265,0.6679688 0,0.3678518 -1.18057,0.6699218 -2.625,0.6699218 -1.93878,0 -2.7078,0.3058645 -2.9336,1.1699219 -0.16823,0.6437408 -0.37809,-0.034452 -0.46679,-1.5058594 z m 35.47656,0.8105469 c -0.43761,-0.00413 -1.00058,0.028743 -1.73047,0.082031 -5.67751,0.4145083 -5.45761,-0.8046678 -5.47461,30.3398441 l -0.0137,27.21875 3.50977,0.203125 3.51172,0.201172 0.32812,14.714844 0.16406,7.357421 a 45,45 0 0 0 0.26172,-0.134765 l 0.0879,-6.722656 c 0.18043,-13.655774 0.24121,-14.210938 1.51368,-14.210938 1.30103,0 1.32354,-0.532821 1.27734,-30.265625 -0.0182,-11.70144 -0.1658,-21.928083 -0.35938,-27.3906252 a 45,45 0 0 0 -1.06054,-0.6152344 c -0.093,1.0907234 -0.22446,1.4480615 -0.33399,0.75 -0.0861,-0.5489621 -0.17973,-0.909495 -0.38476,-1.1464844 a 45,45 0 0 0 -0.57422,-0.3046874 c -0.19602,-0.044117 -0.42162,-0.073328 -0.72266,-0.076172 z m -46.66211,3.6875 a 45,45 0 0 0 -9.0957,8.8925781 c -0.17336,6.932357 -0.25472,15.991008 -0.16016,25.400391 l 0.20899,20.732421 3.17773,0.205079 3.17578,0.203125 0.14844,14.175781 0.01,0.988281 a 45,45 0 0 0 0.44726,0.373047 l 0.0449,-1.898437 c 0.35207,-14.627845 0.3614,-14.715265 1.85743,-14.927735 l 1.50586,-0.214844 -0.12891,-28.210937 c -0.0704,-15.516159 -0.314,-25.3520147 -0.54102,-21.857422 l -0.41211,6.353516 -0.1289,-5.470704 z m 58.462893,4.5273441 c -0.110718,5.70862 -0.192578,13.340567 -0.214844,21.572265 l -0.07813,29.261719 h 2.339844 2.341797 v 7.591797 a 45,45 0 0 0 1.337891,-1.921875 v -7.007813 h 2.339843 1.427735 a 45,45 0 0 0 0.914062,-2.300781 V 29.951172 c 0,-0.141816 -0.0019,-0.234065 -0.002,-0.375 a 45,45 0 0 0 -10.40625,-16.347656 z m -27.955073,5.929687 c -0.0664,-1.303299 -0.11323,9.089162 -0.11329,27.849609 -7e-5,25.01393 0.0837,35.343214 0.18555,22.955079 0.10188,-12.388136 0.10182,-32.854676 0,-45.480469 -0.0255,-3.156448 -0.0501,-4.889786 -0.0723,-5.324219 z m -48.69922,21.474609 A 45,45 0 0 0 -169.42773,45 a 45,45 0 0 0 0.23437,4.574219 c -0.005,-2.997269 -0.007,-5.976934 -0.0215,-8.941407 z m 14.77343,13.478516 c 0.23235,0.0096 0.43185,0.07247 0.54297,0.183594 0.22225,0.222244 -0.17191,0.380602 -0.87695,0.351562 -0.77914,-0.03209 -0.93784,-0.190792 -0.4043,-0.404296 0.2414,-0.0966 0.50594,-0.14043 0.73828,-0.13086 z m 19.39649,0 c 0.23234,0.0096 0.43184,0.07247 0.54297,0.183594 0.22224,0.222244 -0.17192,0.380602 -0.87696,0.351562 -0.77914,-0.03209 -0.93783,-0.190792 -0.40429,-0.404296 0.2414,-0.0966 0.50593,-0.14043 0.73828,-0.13086 z m 28.75976,0 c 0.23235,0.0096 0.43185,0.07247 0.54297,0.183594 0.22224,0.222244 -0.17385,0.380602 -0.8789,0.351562 -0.77914,-0.03209 -0.93784,-0.190792 -0.4043,-0.404296 0.2414,-0.0966 0.50789,-0.14043 0.74023,-0.13086 z m 19.394535,0 c 0.232346,0.0096 0.431845,0.07247 0.542969,0.183594 0.222243,0.222244 -0.17191,0.380602 -0.876953,0.351562 -0.779142,-0.03209 -0.937835,-0.190792 -0.404297,-0.404296 0.2414,-0.0966 0.505935,-0.14043 0.738281,-0.13086 z" />
    <path
       id="path865"
       style="fill:#333333;fill-opacity:1;stroke-width:1"
       d="m -101.86719,6.6054688 c -0.19261,-3.148e-4 -0.30463,1.012984 -0.40039,3.28125 -0.15127,3.5835292 -0.22811,3.8382532 -0.4414,1.4492192 -0.20177,-2.2600604 -0.48253,-2.8120647 -1.2754,-2.507813 -0.55921,0.2145908 -2.03916,0.390625 -3.2871,0.390625 -4.20767,0 -4.3086,0.6801983 -4.3086,28.691406 v 24.744141 l 3.50977,0.203125 3.51172,0.201172 0.32812,14.714844 0.16406,7.357421 a 45,45 0 0 0 0.26172,-0.134765 l 0.0879,-6.646485 c 0.17839,-13.446961 0.25189,-14.154923 1.51172,-14.484375 1.29439,-0.33847 1.32291,-0.970743 1.25781,-27.664062 -0.0367,-15.024404 -0.30704,-28.0686517 -0.60156,-28.9882814 -0.12699,-0.39655 -0.23081,-0.6072788 -0.31836,-0.6074218 z m -37.9707,2.2792968 -0.53711,3.0097654 c -0.29454,1.655333 -0.55668,13.748728 -0.58398,26.875 l -0.0508,23.865235 1.83985,0.21289 1.83984,0.210938 0.32617,14.714844 0.23438,10.5 a 45,45 0 0 0 0.14844,0.04102 l 0.13281,-10.041015 0.1875,-14.210938 h 2.99609 2.9961 l -0.14063,-29.595703 c -0.0961,-20.020829 -0.267,-26.0259413 -0.52734,-18.560547 l -0.38477,11.035156 -0.14258,-8.564453 -0.14062,-8.564453 -1.48633,1.041016 c -0.81755,0.572637 -2.4522,1.041015 -3.63086,1.041015 -1.47856,0 -2.2382,0.362382 -2.44922,1.169922 -0.16823,0.643741 -0.37809,-0.03445 -0.46679,-1.505859 z m -10.17578,0.6679688 -0.35938,24.7460936 -0.35937,24.746094 -0.1543,-22.837891 -0.1543,-22.83789 -3.67773,-0.04297 c -0.7193,-0.0086 -1.21656,-0.0019 -1.68359,0.01172 a 45,45 0 0 0 -3.33789,3.769531 c -0.39932,7.947035 -0.70823,22.843601 -0.54297,33.24414 l 0.21289,13.375 3.17773,0.205079 3.17578,0.203125 0.14844,14.175781 0.01,0.988281 a 45,45 0 0 0 0.44726,0.373047 l 0.0449,-1.898437 c 0.35207,-14.627847 0.3614,-14.715265 1.85743,-14.927735 l 1.50586,-0.214844 -0.1543,-26.539062 z m 57.435545,3.6582036 c -0.205466,4.842778 -0.242742,13.090723 -0.140625,25.769531 l 0.199219,24.746093 2.173828,0.210938 2.173828,0.208984 0.07617,7.404297 a 45,45 0 0 0 0.748047,-1.052734 l 0.179687,-7.439453 2.507813,-0.207032 1.595703,-0.132812 a 45,45 0 0 0 0.90625,-2.28125 l -0.07031,-29.355469 c -0.0017,-0.723551 -0.006,-1.041599 -0.0078,-1.732422 a 45,45 0 0 0 -10.34181,-16.138671 z m -27.937495,9.595703 c -0.0667,-1.162731 -0.11329,8.746179 -0.11329,26.541015 0,23.726448 0.0832,33.433537 0.18555,21.570313 0.10233,-11.863224 0.10233,-31.275448 0,-43.138672 -0.0256,-2.965806 -0.05,-4.585079 -0.0723,-4.972656 z m -48.75391,18.439453 A 45,45 0 0 0 -169.42773,45 a 45,45 0 0 0 0.21289,4.361328 c -0.012,-2.771592 -0.033,-5.414235 -0.0547,-8.115234 z M -102.5,42.003906 c 0.0329,-0.03189 0.0716,0.349057 0.11133,1.1875 0.12717,2.683021 0.12637,6.896375 -0.002,9.363282 -0.12832,2.466906 -0.23343,0.271019 -0.23243,-4.878907 7.3e-4,-3.540575 0.0506,-5.601716 0.12305,-5.671875 z m -28.90234,5.56836 c 0.0608,0.0092 0.13282,0.112422 0.21289,0.3125 0.19321,0.482806 0.1695,1.059006 -0.0527,1.28125 -0.22224,0.222243 -0.37861,-0.171904 -0.34961,-0.876954 0.0201,-0.486961 0.0881,-0.732146 0.18946,-0.716796 z m 47.632809,0.285156 c 0.0306,0.05108 0.06441,0.263454 0.09961,0.654297 0.140806,1.56337 0.140806,4.122176 0,5.685547 -0.140814,1.56337 -0.255859,0.282991 -0.255859,-2.84375 0,-2.345057 0.06444,-3.649322 0.156249,-3.496094 z m -55.515629,1.0625 c 0.0317,0.06383 0.0654,0.262462 0.10157,0.609375 0.14518,1.387649 0.14189,3.494327 -0.006,4.681641 -0.14775,1.187313 -0.26472,0.05348 -0.26172,-2.521485 0.002,-1.931223 0.0708,-2.961027 0.16601,-2.769531 z m 7.91211,1.886719 c 0.0533,0.008 0.11252,0.04025 0.17383,0.101562 0.24522,0.245235 0.24522,0.647343 0,0.892578 -0.24524,0.245234 -0.44531,0.0432 -0.44531,-0.447265 0,-0.367854 0.11159,-0.570911 0.27148,-0.546875 z m -23.47461,3.269531 c 1.09165,-0.02731 1.70504,0.23442 1.46485,0.623047 -0.22735,0.367852 -0.47082,0.646954 -0.54102,0.621093 -0.0702,-0.02585 -0.72914,-0.30495 -1.46484,-0.621093 -1.1766,-0.5056 -1.11153,-0.581697 0.54101,-0.623047 z m 19.77735,0.03906 c 0.36367,0.0045 0.70328,0.05293 0.92969,0.144532 0.4528,0.183206 -0.08,0.322223 -1.1836,0.308593 -1.10355,-0.01363 -1.473,-0.164411 -0.82226,-0.333984 0.32537,-0.08479 0.7125,-0.123632 1.07617,-0.119141 z m 28.75976,0 c 0.36367,0.0045 0.70328,0.05293 0.92969,0.144532 0.45281,0.183206 -0.08,0.322223 -1.18359,0.308593 -1.10355,-0.01363 -1.47496,-0.164411 -0.82422,-0.333984 0.32537,-0.08479 0.71445,-0.123632 1.07812,-0.119141 z m 18.806644,0.002 c 0.303059,0 0.606031,0.0459 0.835937,0.138671 0.459814,0.18554 0.08369,0.337891 -0.835937,0.337891 -0.919625,0 -1.295752,-0.152351 -0.835938,-0.337891 0.229907,-0.09277 0.532879,-0.138671 0.835938,-0.138671 z m -71.320314,0.144531 c 0.0608,0.0092 0.13478,0.110469 0.21484,0.310547 0.19322,0.482806 0.16951,1.060959 -0.0527,1.283203 -0.22224,0.222244 -0.38056,-0.173857 -0.35156,-0.878907 0.02,-0.486961 0.0881,-0.730193 0.18945,-0.714843 z m 27.45117,1.894531 c 0.0533,0.008 0.11252,0.04221 0.17383,0.103516 0.24522,0.245235 0.24522,0.64539 0,0.890625 -0.24524,0.245234 -0.44531,0.04516 -0.44531,-0.445313 0,-0.367853 0.11159,-0.572864 0.27148,-0.548828 z" />
    <circle
       cx="-124.42703"
       cy="45"
       r="45"
       fill="#465774"
       id="circle986"
       style="opacity:0.30378" />
  </g>
  <path
     d="M0 45C0 69.8528 20.1472 90 45 90C69.8528 90 90 69.8528 90 45H0Z"
     fill="url(#paint0_linear)"
     id="path4" />
  <circle
     cx="45"
     cy="45"
     r="44"
     stroke="#8296B9"
     stroke-width="2"
     id="circle12"
     style="stroke:#45652a;stroke-opacity:1" />
  <defs
     id="defs34">
    <linearGradient
       id="paint0_linear"
       x1="45"
       y1="45"
       x2="45"
       y2="90"
       gradientUnits="userSpaceOnUse">
      <stop
         stop-color="#343E51"
         stop-opacity="0"
         id="stop14"
         style="stop-color:#515151;stop-opacity:0" />
      <stop
         offset="1"
         stop-color="#ED5353"
         stop-opacity="0.3"
         id="stop16"
         style="stop-color:#121010;stop-opacity:0.3019608" />
    </linearGradient>
    <linearGradient
       id="paint1_linear"
       x1="45"
       y1="45"
       x2="45"
       y2="0"
       gradientUnits="userSpaceOnUse"
       xlink:href="#paint3_linear">
      <stop
         stop-color="#343E51"
         stop-opacity="0"
         id="stop19" />
      <stop
         offset="1"
         stop-color="#ED5353"
         stop-opacity="0.3"
         id="stop21"
         style="stop-color:#ffffff;stop-opacity:0.3019608" />
    </linearGradient>
    <linearGradient
       id="paint2_linear"
       x1="45"
       y1="18"
       x2="45"
       y2="72"
       gradientUnits="userSpaceOnUse">
      <stop
         stop-color="#343E51"
         id="stop24" />
      <stop
         offset="1"
         stop-color="#343E51"
         id="stop26" />
    </linearGradient>
    <linearGradient
       id="paint3_linear"
       x1="45"
       y1="28"
       x2="45"
       y2="62"
       gradientUnits="userSpaceOnUse">
      <stop
         stop-color="#FF6B6B"
         id="stop29" />
      <stop
         offset="1"
         stop-color="#ED5353"
         id="stop31" />
    </linearGradient>
  </defs>
</svg>
