<svg width="90" height="90" viewBox="0 0 90 90" fill="none" xmlns="http://www.w3.org/2000/svg">
<circle cx="45" cy="45" r="45" fill="#465774"/>
<circle cx="45" cy="45" r="45" fill="black" fill-opacity="0.5"/>
<mask id="mask0" mask-type="alpha" maskUnits="userSpaceOnUse" x="0" y="0" width="90" height="90">
<circle cx="45" cy="45" r="45" fill="#465774"/>
</mask>
<g mask="url(#mask0)">
<rect x="23" y="38" width="14" height="14" rx="3" fill="#343E51"/>
<rect x="38" y="38" width="14" height="14" rx="3" fill="#FFF490"/>
<rect x="53" y="38" width="14" height="14" rx="3" fill="#FFE090"/>
<rect x="68" y="38" width="14" height="14" rx="3" fill="#FFF490"/>
<rect x="83" y="38" width="14" height="14" rx="3" fill="#FFE090" fill-opacity="0.1"/>
<rect x="8" y="38" width="14" height="14" rx="3" fill="#FFE090" fill-opacity="0.8"/>
<rect x="-7" y="38" width="14" height="14" rx="3" fill="#343E51"/>
<rect x="23" y="23" width="14" height="14" rx="3" fill="#FFE090"/>
<rect x="38" y="23" width="14" height="14" rx="3" fill="#FFE090" fill-opacity="0.8"/>
<rect x="53" y="23" width="14" height="14" rx="3" fill="#FFE090" fill-opacity="0.4"/>
<rect x="68" y="23" width="14" height="14" rx="3" fill="#FFE090" fill-opacity="0.35"/>
<rect x="83" y="23" width="14" height="14" rx="3" fill="#343E51"/>
<rect x="8" y="23" width="14" height="14" rx="3" fill="#343E51"/>
<rect x="-7" y="23" width="14" height="14" rx="3" fill="#FFF490" fill-opacity="0.1"/>
<rect x="23" y="8" width="14" height="14" rx="3" fill="#FFE090" fill-opacity="0.7"/>
<rect x="38" y="8" width="14" height="14" rx="3" fill="#FFF490" fill-opacity="0.2"/>
<rect x="53" y="8" width="14" height="14" rx="3" fill="#FFE090" fill-opacity="0.9"/>
<rect x="68" y="8" width="14" height="14" rx="3" fill="#FFE090" fill-opacity="0.2"/>
<rect x="83" y="8" width="14" height="14" rx="3" fill="#343E51"/>
<rect x="8" y="8" width="14" height="14" rx="3" fill="#343E51"/>
<rect x="-7" y="8" width="14" height="14" rx="3" fill="#343E51"/>
<rect x="23" y="-7" width="14" height="14" rx="3" fill="#FFE090" fill-opacity="0.1"/>
<rect x="38" y="-7" width="14" height="14" rx="3" fill="#343E51"/>
<rect x="53" y="-7" width="14" height="14" rx="3" fill="#343E51"/>
<rect x="68" y="-7" width="14" height="14" rx="3" fill="#343E51"/>
<rect x="83" y="-7" width="14" height="14" rx="3" fill="#343E51"/>
<rect x="8" y="-7" width="14" height="14" rx="3" fill="#343E51"/>
<rect x="-7" y="-7" width="14" height="14" rx="3" fill="#343E51"/>
<rect x="23" y="53" width="14" height="14" rx="3" fill="#FFF490"/>
<rect x="38" y="53" width="14" height="14" rx="3" fill="#FFE090"/>
<rect x="53" y="53" width="14" height="14" rx="3" fill="#343E51"/>
<rect x="68" y="53" width="14" height="14" rx="3" fill="#FFF490" fill-opacity="0.5"/>
<rect x="83" y="53" width="14" height="14" rx="3" fill="#343E51"/>
<rect x="8" y="53" width="14" height="14" rx="3" fill="#FFE090" fill-opacity="0.2"/>
<rect x="-7" y="53" width="14" height="14" rx="3" fill="#343E51"/>
<rect x="23" y="68" width="14" height="14" rx="3" fill="#FFF490" fill-opacity="0.25"/>
<rect x="38" y="68" width="14" height="14" rx="3" fill="#FFE090" fill-opacity="0.5"/>
<rect x="53" y="68" width="14" height="14" rx="3" fill="#FFF490" fill-opacity="0.9"/>
<rect x="68" y="68" width="14" height="14" rx="3" fill="#343E51"/>
<rect x="83" y="68" width="14" height="14" rx="3" fill="#343E51"/>
<rect x="8" y="68" width="14" height="14" rx="3" fill="#FFE090" fill-opacity="0.1"/>
<rect x="-7" y="68" width="14" height="14" rx="3" fill="#343E51"/>
<rect x="23" y="83" width="14" height="14" rx="3" fill="#343E51"/>
<rect x="38" y="83" width="14" height="14" rx="3" fill="#343E51"/>
<rect x="53" y="83" width="14" height="14" rx="3" fill="#343E51"/>
<rect x="68" y="83" width="14" height="14" rx="3" fill="#343E51"/>
<rect x="83" y="83" width="14" height="14" rx="3" fill="#343E51"/>
<rect x="8" y="83" width="14" height="14" rx="3" fill="#343E51"/>
<rect x="-7" y="83" width="14" height="14" rx="3" fill="#343E51"/>
<rect width="88" height="30" transform="matrix(1 0 0 -1 1 30)" fill="url(#paint0_linear)"/>
<rect x="1" y="60" width="88" height="30" fill="url(#paint1_linear)"/>
</g>
<mask id="mask1" mask-type="alpha" maskUnits="userSpaceOnUse" x="0" y="0" width="90" height="90">
<circle cx="45" cy="45" r="45" fill="#C4C4C4"/>
</mask>
<g mask="url(#mask1)">
<g filter="url(#filter0_f)">
<circle cx="45" cy="45" r="42" stroke="#343E51" stroke-width="6"/>
</g>
<g filter="url(#filter1_f)">
<circle cx="45" cy="45" r="42" stroke="#FAC78B" stroke-opacity="0.25" stroke-width="6"/>
</g>
<circle cx="45" cy="45" r="44" stroke="#8296B9" stroke-width="2"/>
</g>
<defs>
<filter id="filter0_f" x="-14" y="-14" width="118" height="118" filterUnits="userSpaceOnUse" color-interpolation-filters="sRGB">
<feFlood flood-opacity="0" result="BackgroundImageFix"/>
<feBlend mode="normal" in="SourceGraphic" in2="BackgroundImageFix" result="shape"/>
<feGaussianBlur stdDeviation="7" result="effect1_foregroundBlur"/>
</filter>
<filter id="filter1_f" x="-12" y="-12" width="114" height="114" filterUnits="userSpaceOnUse" color-interpolation-filters="sRGB">
<feFlood flood-opacity="0" result="BackgroundImageFix"/>
<feBlend mode="normal" in="SourceGraphic" in2="BackgroundImageFix" result="shape"/>
<feGaussianBlur stdDeviation="6" result="effect1_foregroundBlur"/>
</filter>
<linearGradient id="paint0_linear" x1="44" y1="0" x2="44" y2="30" gradientUnits="userSpaceOnUse">
<stop stop-color="#FAC78B" stop-opacity="0"/>
<stop offset="1" stop-color="#ED5353" stop-opacity="0.5"/>
</linearGradient>
<linearGradient id="paint1_linear" x1="45" y1="60" x2="45" y2="90" gradientUnits="userSpaceOnUse">
<stop stop-color="#FAC78B" stop-opacity="0"/>
<stop offset="1" stop-color="#00A3FF" stop-opacity="0.4"/>
</linearGradient>
</defs>
</svg>
