<svg width="90" height="90" viewBox="0 0 90 90" fill="none" xmlns="http://www.w3.org/2000/svg">
<circle cx="45" cy="45" r="45" fill="#465774"/>
<mask id="mask0" mask-type="alpha" maskUnits="userSpaceOnUse" x="0" y="0" width="90" height="90">
<circle cx="45" cy="45" r="45" fill="#465774"/>
</mask>
<g mask="url(#mask0)">
<circle cx="45" cy="45" r="26" fill="url(#paint0_linear)" stroke="#ED5353" stroke-width="2"/>
<rect width="88" height="30" transform="matrix(1 0 0 -1 1 30)" fill="url(#paint1_linear)"/>
<rect x="1" y="60" width="88" height="30" fill="url(#paint2_linear)"/>
<rect x="27" y="39" width="4" height="12" rx="2" fill="#FF7979"/>
<rect x="35" y="34" width="4" height="22" rx="2" fill="#FF7979"/>
<rect x="43" y="37" width="4" height="16" rx="2" fill="#FF7979"/>
<rect x="51" y="31" width="4" height="28" rx="2" fill="#FF7979"/>
<rect x="59" y="40" width="4" height="10" rx="2" fill="#FF7979"/>
</g>
<mask id="mask1" mask-type="alpha" maskUnits="userSpaceOnUse" x="0" y="0" width="90" height="90">
<circle cx="45" cy="45" r="45" fill="#C4C4C4"/>
</mask>
<g mask="url(#mask1)">
<g filter="url(#filter0_f)">
<circle cx="45" cy="45" r="42" stroke="#ED5353" stroke-opacity="0.25" stroke-width="6"/>
</g>
<circle cx="45" cy="45" r="44" stroke="#8296B9" stroke-width="2"/>
</g>
<defs>
<filter id="filter0_f" x="-14" y="-14" width="118" height="118" filterUnits="userSpaceOnUse" color-interpolation-filters="sRGB">
<feFlood flood-opacity="0" result="BackgroundImageFix"/>
<feBlend mode="normal" in="SourceGraphic" in2="BackgroundImageFix" result="shape"/>
<feGaussianBlur stdDeviation="7" result="effect1_foregroundBlur"/>
</filter>
<linearGradient id="paint0_linear" x1="45" y1="18" x2="45" y2="72" gradientUnits="userSpaceOnUse">
<stop stop-color="#343E51"/>
<stop offset="1" stop-color="#343E51"/>
</linearGradient>
<linearGradient id="paint1_linear" x1="44" y1="0" x2="44" y2="30" gradientUnits="userSpaceOnUse">
<stop stop-color="#343E51" stop-opacity="0"/>
<stop offset="1" stop-color="#ED5353" stop-opacity="0.3"/>
</linearGradient>
<linearGradient id="paint2_linear" x1="45" y1="60" x2="45" y2="90" gradientUnits="userSpaceOnUse">
<stop stop-color="#343E51" stop-opacity="0"/>
<stop offset="1" stop-color="#ED5353" stop-opacity="0.3"/>
</linearGradient>
</defs>
</svg>
