<svg width="90" height="90" viewBox="0 0 90 90" fill="none" xmlns="http://www.w3.org/2000/svg">
<circle cx="45" cy="45" r="45" fill="#465774"/>
<path d="M0 45C0 69.8528 20.1472 90 45 90C69.8528 90 90 69.8528 90 45H0Z" fill="url(#paint0_linear)"/>
<path d="M0 45C0 20.1472 20.1472 0 45 0C69.8528 0 90 20.1472 90 45H0Z" fill="url(#paint1_linear)"/>
<circle cx="45" cy="45" r="26" fill="url(#paint2_linear)" stroke="#ED5353" stroke-width="2"/>
<circle cx="45" cy="45" r="17" fill="url(#paint3_linear)"/>
<circle cx="45" cy="45" r="44" stroke="#8296B9" stroke-width="2"/>
<defs>
<linearGradient id="paint0_linear" x1="45" y1="45" x2="45" y2="90" gradientUnits="userSpaceOnUse">
<stop stop-color="#343E51" stop-opacity="0"/>
<stop offset="1" stop-color="#ED5353" stop-opacity="0.3"/>
</linearGradient>
<linearGradient id="paint1_linear" x1="45" y1="45" x2="45" y2="0" gradientUnits="userSpaceOnUse">
<stop stop-color="#343E51" stop-opacity="0"/>
<stop offset="1" stop-color="#ED5353" stop-opacity="0.3"/>
</linearGradient>
<linearGradient id="paint2_linear" x1="45" y1="18" x2="45" y2="72" gradientUnits="userSpaceOnUse">
<stop stop-color="#343E51"/>
<stop offset="1" stop-color="#343E51"/>
</linearGradient>
<linearGradient id="paint3_linear" x1="45" y1="28" x2="45" y2="62" gradientUnits="userSpaceOnUse">
<stop stop-color="#FF6B6B"/>
<stop offset="1" stop-color="#ED5353"/>
</linearGradient>
</defs>
</svg>
