<?xml version="1.0" encoding="UTF-8" standalone="no"?>
<svg
   xmlns:dc="http://purl.org/dc/elements/1.1/"
   xmlns:cc="http://creativecommons.org/ns#"
   xmlns:rdf="http://www.w3.org/1999/02/22-rdf-syntax-ns#"
   xmlns:svg="http://www.w3.org/2000/svg"
   xmlns="http://www.w3.org/2000/svg"
   xmlns:sodipodi="http://sodipodi.sourceforge.net/DTD/sodipodi-0.dtd"
   xmlns:inkscape="http://www.inkscape.org/namespaces/inkscape"
   width="90"
   height="90"
   viewBox="0 0 90 90"
   fill="none"
   version="1.1"
   id="svg36"
   sodipodi:docname="session-dashboard.svg"
   inkscape:version="0.92.2 5c3e80d, 2017-08-06">
  <metadata
     id="metadata40">
    <rdf:RDF>
      <cc:Work
         rdf:about="">
        <dc:format>image/svg+xml</dc:format>
        <dc:type
           rdf:resource="http://purl.org/dc/dcmitype/StillImage" />
      </cc:Work>
    </rdf:RDF>
  </metadata>
  <sodipodi:namedview
     pagecolor="#ffffff"
     bordercolor="#666666"
     borderopacity="1"
     objecttolerance="10"
     gridtolerance="10"
     guidetolerance="10"
     inkscape:pageopacity="0"
     inkscape:pageshadow="2"
     inkscape:window-width="1920"
     inkscape:window-height="1015"
     id="namedview38"
     showgrid="false"
     inkscape:zoom="2.6222222"
     inkscape:cx="-38.707628"
     inkscape:cy="45"
     inkscape:window-x="0"
     inkscape:window-y="0"
     inkscape:window-maximized="1"
     inkscape:current-layer="svg36" />
  <circle
     cx="45"
     cy="45"
     r="45"
     fill="#465774"
     id="circle2" />
  <path
     d="M0 45C0 69.8528 20.1472 90 45 90C69.8528 90 90 69.8528 90 45H0Z"
     fill="url(#paint0_linear)"
     id="path4" />
  <path
     d="M0 45C0 20.1472 20.1472 0 45 0C69.8528 0 90 20.1472 90 45H0Z"
     fill="url(#paint1_linear)"
     id="path6" />
  <circle
     cx="45"
     cy="45"
     r="44"
     stroke="#8296B9"
     stroke-width="2"
     id="circle12" />
  <defs
     id="defs34">
    <linearGradient
       id="paint0_linear"
       x1="45"
       y1="45"
       x2="45"
       y2="90"
       gradientUnits="userSpaceOnUse">
      <stop
         stop-color="#343E51"
         stop-opacity="0"
         id="stop14" />
      <stop
         offset="1"
         stop-color="#ED5353"
         stop-opacity="0.3"
         id="stop16" />
    </linearGradient>
    <linearGradient
       id="paint1_linear"
       x1="45"
       y1="45"
       x2="45"
       y2="0"
       gradientUnits="userSpaceOnUse">
      <stop
         stop-color="#343E51"
         stop-opacity="0"
         id="stop19" />
      <stop
         offset="1"
         stop-color="#ED5353"
         stop-opacity="0.3"
         id="stop21" />
    </linearGradient>
    <linearGradient
       id="paint2_linear"
       x1="45"
       y1="18"
       x2="45"
       y2="72"
       gradientUnits="userSpaceOnUse">
      <stop
         stop-color="#343E51"
         id="stop24" />
      <stop
         offset="1"
         stop-color="#343E51"
         id="stop26" />
    </linearGradient>
    <linearGradient
       id="paint3_linear"
       x1="45"
       y1="28"
       x2="45"
       y2="62"
       gradientUnits="userSpaceOnUse">
      <stop
         stop-color="#FF6B6B"
         id="stop29" />
      <stop
         offset="1"
         stop-color="#ED5353"
         id="stop31" />
    </linearGradient>
  </defs>
  <g
     aria-label="S "
     style="font-style:normal;font-weight:normal;font-size:82.80975342px;line-height:1.25;font-family:sans-serif;letter-spacing:0px;word-spacing:0px;fill:#ffffff;fill-opacity:1;stroke:none;stroke-width:2.07024384"
     id="text831">
    <path
       d="m 57.451442,60.117315 q 0,-4.124314 -2.830412,-6.550381 Q 51.790619,51.140867 43.461122,48.7148 34.727281,46.16743 29.551671,42.204854 24.376062,38.201843 24.376062,31.327986 q 0,-6.873856 5.458651,-11.442949 5.499085,-4.569093 14.556402,-4.569093 9.946874,0 15.324656,5.458651 5.418216,5.458651 5.418216,12.332507 h -7.763414 q 0,-4.933003 -3.194322,-8.167759 -3.194321,-3.234756 -9.785136,-3.234756 -6.226906,0 -9.219055,2.749543 -2.992149,2.709108 -2.992149,6.792988 0,3.719969 3.234756,6.18647 3.27519,2.466502 10.553391,4.488224 9.987309,2.830412 14.637271,7.035595 4.690396,4.205182 4.690396,11.079039 0,7.197332 -5.620388,11.483384 -5.620389,4.286051 -14.920312,4.286051 -5.458651,0 -10.553392,-2.021722 -5.094741,-2.021723 -8.410365,-5.984299 -3.275191,-4.00301 -3.275191,-9.866005 h 7.763415 q 0,6.024733 4.407355,8.774275 4.407355,2.749543 10.068178,2.749543 6.105602,0 9.380792,-2.506936 3.315625,-2.54737 3.315625,-6.833422 z"
       style="stroke-width:2.07024384"
       id="path835" />
  </g>
</svg>
