<svg width="90" height="90" viewBox="0 0 90 90" fill="none" xmlns="http://www.w3.org/2000/svg">
<circle cx="45" cy="45" r="45" fill="#465774"/>
<path d="M0 45C0 69.8528 20.1472 90 45 90C69.8528 90 90 69.8528 90 45H0Z" fill="url(#paint0_linear)"/>
<path d="M0 45C0 20.1472 20.1472 0 45 0C69.8528 0 90 20.1472 90 45H0Z" fill="url(#paint1_linear)"/>
<path fill-rule="evenodd" clip-rule="evenodd" d="M49.2238 18.3322C46.4249 17.8893 43.5746 17.8893 40.7764 18.3322L39.6954 24.3402C37.745 24.8411 35.8753 25.6152 34.1423 26.6403L29.1295 23.1568C26.8376 24.8221 24.8221 26.8376 23.1562 29.1295L26.6403 34.1422C25.6152 35.8753 24.8411 37.745 24.3402 39.6954L18.3322 40.7764C17.8893 43.5746 17.8893 46.4255 18.3322 49.2238L24.3402 50.3047C24.8411 52.2546 25.6152 54.1243 26.6403 55.8579L23.1562 60.8701C24.8221 63.162 26.8376 65.178 29.1295 66.8433L34.1423 63.3593C35.8753 64.3844 37.745 65.1591 39.6954 65.6594L40.7764 71.6674C43.5746 72.1109 46.4249 72.1109 49.2238 71.6674L50.3042 65.6594C52.2546 65.1591 54.1243 64.3844 55.8579 63.3593L60.8701 66.8433C63.162 65.178 65.1781 63.162 66.8434 60.8701L63.3593 55.8579C64.3844 54.1243 65.1591 52.2546 65.6594 50.3047L71.6674 49.2238C72.1103 46.4255 72.1103 43.5746 71.6674 40.7764L65.6594 39.6954C65.1591 37.745 64.3844 35.8753 63.3593 34.1422L66.8434 29.1295C65.1781 26.8376 63.162 24.8221 60.8701 23.1568L55.8579 26.6403C54.1243 25.6152 52.2546 24.8411 50.3042 24.3402L49.2238 18.3322ZM44.9998 37.9797C48.8741 37.9797 52.0199 41.1255 52.0199 44.9998C52.0199 48.8741 48.8741 52.0199 44.9998 52.0199C41.1255 52.0199 37.9797 48.8741 37.9797 44.9998C37.9797 41.1255 41.1255 37.9797 44.9998 37.9797Z" fill="url(#paint2_linear)"/>
<path d="M58 45C58 52.1797 52.1797 58 45 58C37.8203 58 32 52.1797 32 45C32 37.8203 37.8203 32 45 32C52.1797 32 58 37.8203 58 45ZM37.07 45C37.07 49.3796 40.6204 52.93 45 52.93C49.3796 52.93 52.93 49.3796 52.93 45C52.93 40.6204 49.3796 37.07 45 37.07C40.6204 37.07 37.07 40.6204 37.07 45Z" fill="url(#paint3_linear)"/>
<circle cx="45" cy="45" r="44" stroke="#8296B9" stroke-width="2"/>
<defs>
<linearGradient id="paint0_linear" x1="45" y1="45" x2="45" y2="90" gradientUnits="userSpaceOnUse">
<stop stop-color="#343E51" stop-opacity="0"/>
<stop offset="1" stop-color="#00A3FF" stop-opacity="0.3"/>
</linearGradient>
<linearGradient id="paint1_linear" x1="45" y1="45" x2="45" y2="0" gradientUnits="userSpaceOnUse">
<stop stop-color="#343E51" stop-opacity="0"/>
<stop offset="1" stop-color="#00A3FF" stop-opacity="0.2"/>
</linearGradient>
<linearGradient id="paint2_linear" x1="44.9998" y1="18" x2="44.9998" y2="72" gradientUnits="userSpaceOnUse">
<stop stop-color="#EBEBEB"/>
<stop offset="1" stop-color="#CAD1DE"/>
</linearGradient>
<linearGradient id="paint3_linear" x1="45" y1="32" x2="45" y2="58" gradientUnits="userSpaceOnUse">
<stop stop-color="#BDC9D8"/>
<stop offset="1" stop-color="#DBE0E3"/>
</linearGradient>
</defs>
</svg>
