<svg width="90" height="90" viewBox="0 0 90 90" fill="none" xmlns="http://www.w3.org/2000/svg">
<circle cx="45" cy="45" r="45" fill="#465774"/>
<mask id="mask0" mask-type="alpha" maskUnits="userSpaceOnUse" x="0" y="0" width="90" height="90">
<circle cx="45" cy="45" r="45" fill="#465774"/>
</mask>
<g mask="url(#mask0)">
<rect width="88" height="30" transform="matrix(1 0 0 -1 1 30)" fill="url(#paint0_linear)"/>
<rect x="1" y="60" width="88" height="30" fill="url(#paint1_linear)"/>
<path d="M44 13.5774C44.6188 13.2201 45.3812 13.2201 46 13.5774L71.7129 28.4227C72.3317 28.7799 72.7129 29.4402 72.7129 30.1547V59.8453C72.7129 60.5598 72.3317 61.2201 71.7129 61.5774L46 76.4227C45.3812 76.7799 44.6188 76.7799 44 76.4226L18.2872 61.5774C17.6684 61.2201 17.2872 60.5598 17.2872 59.8453V30.1547C17.2872 29.4402 17.6684 28.7799 18.2872 28.4226L44 13.5774Z" fill="#FB9620" fill-opacity="0.6"/>
<path fill-rule="evenodd" clip-rule="evenodd" d="M48.5 72.134C49.1667 72.5189 50 72.0378 50 71.268V42.9137C50 42.5549 49.8077 42.2235 49.4961 42.0455L24.938 28.0123C24.2714 27.6313 23.4419 28.1127 23.4419 28.8805V57.0894C23.4419 57.4466 23.6325 57.7768 23.9419 57.9554L48.5 72.134Z" fill="#FFF000" fill-opacity="0.9"/>
<path fill-rule="evenodd" clip-rule="evenodd" d="M52.5 69.755C53.1667 70.1399 54 69.6588 54 68.889V40.5347C54 40.1758 53.8077 39.8445 53.4961 39.6664L28.938 25.6332C28.2714 25.2523 27.4419 25.7337 27.4419 26.5015V54.7103C27.4419 55.0676 27.6325 55.3977 27.9419 55.5764L52.5 69.755Z" fill="#FFF491" fill-opacity="0.4"/>
<path fill-rule="evenodd" clip-rule="evenodd" d="M56.5 67.755C57.1667 68.1399 58 67.6588 58 66.889V38.5347C58 38.1758 57.8077 37.8445 57.4961 37.6664L32.938 23.6332C32.2714 23.2523 31.4419 23.7337 31.4419 24.5015V52.7103C31.4419 53.0676 31.6325 53.3977 31.9419 53.5764L56.5 67.755Z" fill="#FFF000" fill-opacity="0.4"/>
<path fill-rule="evenodd" clip-rule="evenodd" d="M60.5 65.255C61.1667 65.6399 62 65.1588 62 64.389V36.0347C62 35.6758 61.8077 35.3445 61.4961 35.1664L36.938 21.1332C36.2714 20.7523 35.4419 21.2337 35.4419 22.0015V50.2103C35.4419 50.5676 35.6325 50.8977 35.9419 51.0764L60.5 65.255Z" fill="#FFF491" fill-opacity="0.2"/>
<path fill-rule="evenodd" clip-rule="evenodd" d="M64.5 62.755C65.1667 63.1399 66 62.6588 66 61.889V33.5347C66 33.1758 65.8077 32.8445 65.4961 32.6664L40.938 18.6332C40.2714 18.2523 39.4419 18.7337 39.4419 19.5015V47.7103C39.4419 48.0676 39.6325 48.3977 39.9419 48.5764L64.5 62.755Z" fill="#FFF000" fill-opacity="0.2"/>
<path fill-rule="evenodd" clip-rule="evenodd" d="M68.5 60.555C69.1667 60.9399 70 60.4588 70 59.689V31.3347C70 30.9759 69.8077 30.6445 69.4961 30.4665L44.938 16.4333C44.2714 16.0523 43.4419 16.5337 43.4419 17.3015V45.5104C43.4419 45.8677 43.6325 46.1978 43.9419 46.3764L68.5 60.555Z" fill="#FFF491" fill-opacity="0.1"/>
<path fill-rule="evenodd" clip-rule="evenodd" d="M44.5 73.8007C45.1667 74.1856 46 73.7044 46 72.9346V44.5803C46 44.2215 45.8077 43.8901 45.4961 43.7121L20.938 29.6789C20.2714 29.2979 19.4419 29.7793 19.4419 30.5471V58.756C19.4419 59.1133 19.6325 59.4434 19.9419 59.622L44.5 73.8007Z" fill="#FFF491" fill-opacity="0.2"/>
</g>
<mask id="mask1" mask-type="alpha" maskUnits="userSpaceOnUse" x="0" y="0" width="90" height="90">
<circle cx="45" cy="45" r="45" fill="#C4C4C4"/>
</mask>
<g mask="url(#mask1)">
<g filter="url(#filter0_f)">
<circle cx="45" cy="45" r="42" stroke="#ED5353" stroke-opacity="0.3" stroke-width="6"/>
</g>
<circle cx="45" cy="45" r="44" stroke="#8296B9" stroke-width="2"/>
</g>
<defs>
<filter id="filter0_f" x="-14" y="-14" width="118" height="118" filterUnits="userSpaceOnUse" color-interpolation-filters="sRGB">
<feFlood flood-opacity="0" result="BackgroundImageFix"/>
<feBlend mode="normal" in="SourceGraphic" in2="BackgroundImageFix" result="shape"/>
<feGaussianBlur stdDeviation="7" result="effect1_foregroundBlur"/>
</filter>
<linearGradient id="paint0_linear" x1="44" y1="0" x2="44" y2="30" gradientUnits="userSpaceOnUse">
<stop stop-color="#343E51" stop-opacity="0"/>
<stop offset="1" stop-color="#D4A4FF" stop-opacity="0.3"/>
</linearGradient>
<linearGradient id="paint1_linear" x1="45" y1="60" x2="45" y2="90" gradientUnits="userSpaceOnUse">
<stop stop-color="#343E51" stop-opacity="0"/>
<stop offset="1" stop-color="#FB9620" stop-opacity="0.2"/>
</linearGradient>
</defs>
</svg>
